<svg viewBox="0 0 24 24" fill="none" xmlns="http://www.w3.org/2000/svg"><path fill-rule="evenodd" clip-rule="evenodd" d="M17.14 2.18c1.03-.5 2.23.25 2.23 1.4V6.9a3.5 3.5 0 0 1 0 6.7v3.15c0 1.15-1.2 1.9-2.24 1.4l-5.45-2.66a1.56 1.56 0 0 1-.1-.05h-3.2l2.26 5.5a1 1 0 1 1-1.85.75l-2.56-6.25h-1.7a2.4 2.4 0 0 1-2.4-2.4V7.27a2.4 2.4 0 0 1 2.4-2.4h7.04l.12-.06 5.45-2.63ZM12.8 13.8V6.5l4.56-2.2v11.75l-4.56-2.23Zm-2-6.94H4.53a.4.4 0 0 0-.4.4v5.77c0 .22.18.4.4.4H10.8V6.87Zm9.06 3.38c0 .45-.2.84-.5 1.12V9.14c.3.27.5.67.5 1.11Z" fill="currentColor"/></svg>
