<svg viewBox="0 0 24 24" xmlns="http://www.w3.org/2000/svg" fill="none"><path fill="currentColor" d="M17.995 2H7.98a3.011 3.011 0 0 0-3.004 3v2h2.003V5c0-.55.45-1 1.001-1h10.016c.551 0 1.002.45 1.002 1v14c0 .55-.45 1-1.002 1H7.98c-.55 0-1.001-.45-1.001-1v-2H4.975v2c0 1.66 1.352 3 3.004 3h10.016A3.005 3.005 0 0 0 21 19V5c0-1.65-1.352-3-3.005-3Z"/><path fill="currentColor" d="M9.332 13v1.5c0 .43.51.66.85.39l3.126-2.51c.25-.2.25-.56 0-.76l-3.125-2.51c-.34-.27-.851-.03-.851.39V11h-6.29C2.47 11 2 11.45 2 12s.47 1 1.042 1h6.29Z"/></svg>