<svg viewBox="0 0 24 24" fill="none" xmlns="http://www.w3.org/2000/svg"><path d="M13.8 12a1.8 1.8 0 1 1-3.6 0 1.8 1.8 0 0 1 3.6 0Z" fill="currentColor"/><path fill-rule="evenodd" clip-rule="evenodd" d="M12 5.5a6.5 6.5 0 1 0 0 13 6.5 6.5 0 0 0 0-13ZM3.5 12a8.5 8.5 0 1 1 17 0 8.5 8.5 0 0 1-17 0Z" fill="currentColor"/><path fill-rule="evenodd" clip-rule="evenodd" d="M12 1.3c.6 0 1 .4 1 1v4.3a1 1 0 1 1-2 0V2.3c0-.6.4-1 1-1ZM12 16.4c.6 0 1 .4 1 1v4.3a1 1 0 1 1-2 0v-4.3c0-.6.4-1 1-1ZM7.6 12c0 .6-.4 1-1 1H2.3a1 1 0 1 1 0-2h4.3c.6 0 1 .5 1 1ZM22.7 12c0 .6-.4 1-1 1h-4.3a1 1 0 1 1 0-2h4.3c.6 0 1 .5 1 1Z" fill="currentColor"/></svg>
