<svg viewBox="0 0 24 24" fill="none" xmlns="http://www.w3.org/2000/svg"><path fill-rule="evenodd" clip-rule="evenodd" d="M2.28 2.99c0-.55.44-.99.98-.99h2.91c.25 0 .5.1.68.28L12 7.35l5.15-5.07a.96.96 0 0 1 .68-.28h2.91c.54 0 .98.44.98.99v3.34a1 1 0 0 1-.3.7l-4.87 4.8 2.93 2.87-.05.05.91-.92a.96.96 0 0 1 1.38 0 1 1 0 0 1 0 1.4l-2.52 2.54 2.52 2.55a1 1 0 0 1 0 1.4.96.96 0 0 1-1.38 0l-2.51-2.56-2.51 2.55a.96.96 0 0 1-1.38 0 1 1 0 0 1 0-1.4L15 19.26 12 16.3l-3 2.95 1.06 1.07a1 1 0 0 1 0 1.4.96.96 0 0 1-1.38 0l-2.5-2.56-2.52 2.55a.96.96 0 0 1-1.38 0 1 1 0 0 1 0-1.4l2.52-2.54-2.52-2.55a1 1 0 0 1 0-1.4.96.96 0 0 1 1.38 0l.9.93-.04-.05 2.93-2.87-4.87-4.8a1 1 0 0 1-.3-.7V3Zm6.56 7.46 1.76-1.73-4.82-4.75H4.23v1.94l4.61 4.54ZM5.9 16.1l1.73 1.76L19.77 5.9V3.97h-1.55L5.9 16.1Zm7.5-1.17 2.97 2.93 1.73-1.76-2.94-2.9-1.76 1.73Z" fill="currentColor"/></svg>
