<svg viewBox="0 0 24 24" fill="none" xmlns="http://www.w3.org/2000/svg">
<path d="M21.5996 3.49023C22.2596 3.49023 22.82 3.70014 23.29 4.12012C23.76 4.54009 24 5.04017 24 5.62012V9.2002C24 9.40017 23.9298 9.56997 23.7998 9.70996C23.6598 9.84996 23.4798 9.95047 23.2598 9.98047C22.78 10.1205 22.3802 10.3802 22.0703 10.75C21.7604 11.1199 21.5997 11.5501 21.5996 12C21.5996 12.45 21.7603 12.88 22.0703 13.25C22.3802 13.6199 22.7799 13.8697 23.2598 14.0098C23.4797 14.0498 23.6598 14.1403 23.7998 14.2803C23.9298 14.4202 24 14.5901 24 14.79V18.3701C24 18.9601 23.76 19.4601 23.29 19.8701C22.82 20.2901 22.2596 20.5 21.5996 20.5H2.40039C1.74039 20.5 1.17996 20.2801 0.709961 19.8701C0.240014 19.4501 0 18.9501 0 18.3701V14.79C4.56037e-05 14.5901 0.0702377 14.4202 0.200195 14.2803C0.340184 14.1403 0.520275 14.0398 0.740234 14.0098C1.22008 13.8797 1.61976 13.6199 1.92969 13.25C2.23969 12.88 2.40039 12.45 2.40039 12C2.40034 11.5501 2.23963 11.1199 1.92969 10.75C1.61978 10.3702 1.21999 10.1204 0.740234 9.98047C0.520234 9.94047 0.340195 9.84996 0.200195 9.70996C0.0702248 9.56997 0 9.40017 0 9.2002V5.62012C3.17443e-05 5.03017 0.239992 4.54009 0.709961 4.12012C1.17995 3.70014 1.74041 3.49023 2.40039 3.49023H21.5996ZM2.00977 5.5V8.27051C2.75977 8.67051 3.43035 9.24062 3.86035 9.89062C4.29012 10.5304 4.50972 11.2403 4.50977 12C4.50977 12.76 4.29032 13.4604 3.86035 14.1104C3.42038 14.7503 2.73995 15.2799 2 15.6699L2.01953 18.4902H22.0098L21.9902 15.5205C21.2503 15.1306 20.5804 14.7602 20.1504 14.1104C19.7204 13.4704 19.5 12.76 19.5 12C19.5 11.2401 19.7205 10.5405 20.1504 9.89062C20.5804 9.24063 21.26 8.67027 22 8.28027H22.0098V5.5H2.00977ZM11.9795 7.85938C12.1693 7.85946 12.3593 7.92926 12.4893 8.0791C12.6392 8.22905 12.6992 8.40924 12.6992 8.61914C12.6992 8.73914 12.6794 8.85973 12.6094 8.96973C12.5494 9.07965 12.4786 9.16929 12.3887 9.23926L13.9189 11.5098L15.4492 10.6797C15.4492 10.6797 15.4291 10.59 15.4092 10.5498C15.3992 10.4999 15.3994 10.4396 15.3994 10.3896C15.3994 10.1797 15.4694 9.99961 15.6094 9.84961C15.7494 9.69961 15.9291 9.62891 16.1191 9.62891C16.3091 9.62891 16.4989 9.69961 16.6289 9.84961C16.7589 9.99961 16.8389 10.1797 16.8389 10.3896C16.8388 10.5995 16.7688 10.7798 16.6289 10.9297C16.4989 11.0795 16.309 11.1494 16.1191 11.1494H16.0195L15.4688 14.7197C15.4286 14.9894 15.1992 15.1795 14.9395 15.1797H9.01953C8.74966 15.1797 8.52941 14.9796 8.48926 14.7197L7.93945 11.1494H7.83887C7.62907 11.1494 7.45903 11.0795 7.3291 10.9297C7.19916 10.7798 7.11921 10.5995 7.11914 10.3896C7.11914 10.1797 7.18919 9.99958 7.3291 9.84961C7.45904 9.69968 7.64896 9.62897 7.83887 9.62891C8.02887 9.62891 8.21961 9.69961 8.34961 9.84961C8.47942 9.99954 8.55957 10.1798 8.55957 10.3896C8.55957 10.4495 8.55881 10.4999 8.54883 10.5498C8.53886 10.5996 8.52873 10.6498 8.50879 10.6797L10.0391 11.5098L11.5693 9.23926C11.4795 9.17934 11.4096 9.07954 11.3496 8.96973C11.2896 8.85973 11.2588 8.73914 11.2588 8.61914C11.2588 8.40926 11.3288 8.22904 11.4688 8.0791C11.5988 7.9291 11.7895 7.85938 11.9795 7.85938Z" fill="currentColor"/>
</svg>
