<svg viewBox="0 0 24 24" fill="none" xmlns="http://www.w3.org/2000/svg">
    <path fill-rule="evenodd" clip-rule="evenodd" d="M4.61314 2.19291C4.70811 2.07081 4.85011 2 5.00003 2H19C19.1499 2 19.2919 2.07081 19.3869 2.19291C19.4818 2.31501 19.5198 2.47553 19.4902 2.63022L19.208 4.10526H21.5C21.7761 4.10526 22 4.3409 22 4.63158V7.03759C22 7.17295 21.9505 7.3031 21.8617 7.401C21.1327 8.20486 19.2335 10.3112 18.7184 13.1513C18.6734 13.3995 18.4673 13.5789 18.2273 13.5789H16.0866C16.0098 13.6748 15.932 13.7673 15.8531 13.8563C15.137 14.6643 14.3406 15.1816 13.5002 15.4527C13.5022 15.9986 13.5222 16.5817 13.7201 17.1564C13.9283 17.7609 14.3462 18.3876 15.2415 18.9076C15.2464 18.9104 15.2511 18.9133 15.2558 18.9162C15.9908 19.0684 16.5198 19.4393 16.8796 19.8812C17.3321 20.4369 17.5 21.0846 17.5 21.4737C17.5 21.7644 17.2761 22 17 22H7.00002C6.72388 22 6.50002 21.7644 6.50002 21.4737C6.50002 21.0846 6.6679 20.4369 7.12039 19.8812C7.48019 19.4393 8.00918 19.0684 8.74419 18.9162C8.74889 18.9133 8.75366 18.9104 8.75848 18.9076C9.65383 18.3876 10.0718 17.7609 10.2799 17.1564C10.4781 16.5809 10.4979 15.9971 10.4998 15.4505C9.44116 15.1064 8.58148 14.4131 7.89701 13.5789H5.77272C5.53273 13.5789 5.32659 13.3995 5.28159 13.1513C4.76649 10.3112 2.86727 8.20486 2.13832 7.401C2.04954 7.3031 2 7.17295 2 7.03759V4.63158C2 4.3409 2.22386 4.10526 2.5 4.10526H4.79207L4.50987 2.63022C4.48027 2.47553 4.51818 2.31501 4.61314 2.19291ZM4.99346 5.1579H3V6.82709C3.78417 7.69823 5.5406 9.75058 6.17612 12.5263H7.15978C6.18696 10.9065 5.68108 9.02746 5.50759 7.84517L4.99346 5.1579ZM11.4984 15.6595C11.4909 16.1904 11.4493 16.8495 11.2201 17.5151C11.0626 17.9724 10.8206 18.4231 10.4577 18.8421H13.5424C13.1794 18.4231 12.9374 17.9724 12.7799 17.5151C12.5508 16.8496 12.5092 16.1906 12.5017 15.6597C12.3355 15.6761 12.1681 15.6842 12 15.6842C11.8288 15.6842 11.6616 15.6758 11.4984 15.6595ZM16.8027 12.5263H17.8239C18.4594 9.75058 20.2158 7.69823 21 6.82709V5.1579H19.0066L18.4902 7.85708L18.4871 7.87212C18.0598 9.81066 17.4895 11.3464 16.8027 12.5263ZM5.61076 3.05263L6.49018 7.64927C6.49172 7.65733 6.49309 7.66543 6.49427 7.67356C6.65321 8.76681 7.1343 10.5429 8.04525 12.0301C8.95409 13.5139 10.2358 14.6316 12 14.6316C13.1107 14.6316 14.1785 14.2027 15.1219 13.1382C16.0773 12.0603 16.9226 10.309 17.5113 7.64167L18.3893 3.05263H5.61076ZM7.50002 6.73684C7.50002 6.44617 7.72388 6.21053 8.00002 6.21053H16C16.2761 6.21053 16.5 6.44617 16.5 6.73684C16.5 7.02752 16.2761 7.26316 16 7.26316H8.00002C7.72388 7.26316 7.50002 7.02752 7.50002 6.73684ZM7.99318 8.8421C7.99318 8.55143 8.21704 8.31579 8.49318 8.31579H15.4932C15.7693 8.31579 15.9932 8.55143 15.9932 8.8421C15.9932 9.13278 15.7693 9.36842 15.4932 9.36842H8.49318C8.21704 9.36842 7.99318 9.13278 7.99318 8.8421ZM7.64247 20.9474H16.3576C16.3007 20.8241 16.2234 20.6928 16.1204 20.5662C15.8433 20.226 15.3587 19.8947 14.5 19.8947H9.50002C8.64136 19.8947 8.15669 20.226 7.87965 20.5662C7.77659 20.6928 7.69937 20.8241 7.64247 20.9474Z" fill="currentColor"/>
</svg>
