<svg xmlns="http://www.w3.org/2000/svg" fill="none" viewBox="0 0 24 24">
  <path fill="currentColor" fill-rule="evenodd" d="M2 12a10 10 0 1120 0 10 10 0 01-20 0zm1.086-.784a8.912 8.912 0 00.856 4.678l1.33-2.629-2.186-2.05zm.2-1.257l2.792 2.621 2.406-.516L9.832 9.37 8.723 7.16l-3.699-.624a.53.53 0 01-.09-.024 8.911 8.911 0 00-1.648 3.448zm7.481-1.073l3.153.45 1.852-1.845-.492-3.727a.522.522 0 01-.004-.092 8.924 8.924 0 00-3.877-.6.527.527 0 01-.041.116L9.66 6.681l1.108 2.205zm3.896 1.195l.447 3.119 2.598 1.007 3.217-1.579a8.928 8.928 0 00-.552-3.789.525.525 0 01-.032-.003L16.51 8.24l-1.846 1.84zm-.004 4.074l-2.71 1.354-.407 2.39 2.543 2.768.025.03a8.923 8.923 0 003.772-1.955l-.617-3.578-2.606-1.01zm-3.75 1.183L8.673 13.1l-2.398.513-1.7 3.36-.006.011a8.997 8.997 0 002.446 2.445l.016-.007 3.475-1.711.403-2.374zM5.757 5.59a8.927 8.927 0 014.405-2.349L8.772 6.1l-3.015-.51zm14.99 8.297a8.918 8.918 0 01-1.954 3.936l-.474-2.744 2.428-1.192zm-7.873 7.017l-2.015-2.195-2.744 1.352a8.911 8.911 0 004.76.842l-.001.001zM16.4 4.207a8.99 8.99 0 013.445 3.487l-3.047-.474-.398-3.013zm-6.918 8.215l1.24-2.479 2.918.417.417 2.918-2.48 1.24-2.094-2.095z" clip-rule="evenodd"/>
</svg>
