<svg viewBox="0 0 24 24" fill="none" xmlns="http://www.w3.org/2000/svg"><path fill-rule="evenodd" clip-rule="evenodd" d="m14.13 2.49 1.4.3c.36.09.5.52.26.8l-.55.62-.4.46.14 1.44a.48.48 0 0 1-.67.49L13.01 6l-.57.26-.74.33a.48.48 0 0 1-.67-.49l.15-1.44-.41-.46-.55-.62a.48.48 0 0 1 .26-.8l1.4-.3.3-.54.41-.71a.47.47 0 0 1 .82 0zm-1.65.85-1 .22.68.78-.1 1.04.94-.42.95.42-.1-1.04.68-.78-1-.22-.53-.9z" fill="currentColor"/><path fill-rule="evenodd" clip-rule="evenodd" d="M5.63 3.77c.82-.22 1.5.02 2 .47.46.43.75 1.03.9 1.57v.02l.7 2.99a2.4 2.4 0 0 1 1.96-.97c.72 0 1.4.3 1.85.82a2.4 2.4 0 0 1 1.74-.82c.81 0 1.58.4 2 1.03l.69-3.05c.07-.32.26-.94.7-1.43a2 2 0 0 1 2.17-.62c.92.24 1.4.81 1.57 1.47.17.6.06 1.23-.05 1.63l-4.01 14.34A2.4 2.4 0 0 1 15.52 23H7.46a2.4 2.4 0 0 1-2.37-1.97l-.7-3.57a2.46 2.46 0 0 1 1.39-2.72l-1.71-8.1a2.8 2.8 0 0 1 .16-1.71c.25-.55.72-.98 1.4-1.16m14.45 1.02a1.2 1.2 0 0 0-.7 0q-.26.08-.45.3c-.26.3-.4.72-.46.98l-1.17 5.22-.14.64-.04.17-.01.05v.01l-.01.02v.02c-.16.5-.4.99-.78 1.37s-.9.62-1.54.62q-.46 0-.86-.15.23.34.35.76c.22.8.01 1.64-.51 2.2-.28.3-.64.41-.91.48l-3.08.81a.5.5 0 0 1-.63-.37.5.5 0 0 1 .37-.64l3.08-.8q.33-.1.42-.2c.27-.29.4-.74.27-1.2-.2-.71-.87-1.1-1.46-.94l-5.3 1.46h-.03l-.03.01a1.4 1.4 0 0 0-1.07 1.65l.7 3.57c.14.65.7 1.13 1.37 1.13h8.06a1.4 1.4 0 0 0 1.34-1.02L20.87 6.6c.1-.33.14-.74.05-1.08-.08-.29-.28-.58-.84-.73M6.93 5a1 1 0 0 0-1.04-.23q-.55.17-.73.6c-.13.28-.17.66-.09 1.05l1.7 8.02 2.98-.82q0-.02-.03-.04c-.4-.37-.65-.88-.77-1.42L7.54 6.09a2.3 2.3 0 0 0-.6-1.08M11.2 8.9c-.51 0-.94.25-1.15.58q-.08.1-.08.41l.01 2.1q.14.56.45.85.3.31.86.32c.6 0 1.06-.33 1.23-.72V9.99c0-.55-.53-1.1-1.32-1.1m3.59 0c-.27 0-.6.12-.85.35q-.35.3-.39.66v2.53c.18.4.64.72 1.24.72q.53-.02.82-.33.3-.31.49-.86V9.99c0-.55-.53-1.1-1.31-1.1" fill="currentColor"/></svg>
