<svg viewBox="0 0 24 24" fill="none" xmlns="http://www.w3.org/2000/svg"><g clip-path="url(#a)" fill="currentColor"><path d="M17.244 4.73a.723.723 0 1 1-1.442.003.723.723 0 0 1 1.442-.002"/><path d="M20.708 8.023a3.294 3.294 0 0 0 3.29-3.29.4.4 0 0 0-.402-.401h-2.75a5.7 5.7 0 0 0-1.733-2.886 5.74 5.74 0 0 0-4.454-1.41c-2.56.29-4.657 2.35-4.987 4.902a5.7 5.7 0 0 0 .783 3.725H5.048A6.14 6.14 0 0 1 .684 6.856.4.4 0 0 0 0 7.14v3.85a9.002 9.002 0 0 0 .584 3.192c.222.587.466 1.08.737 1.506.276.427.607.824.988 1.18.19.177.443.394.745.566-.637.491-1.464.832-2.568 1.067a.62.62 0 0 0-.486.602v4.495c0 .22.18.402.402.402h21.752c.22 0 .402-.182.402-.402v-4.567a.617.617 0 0 0-.834-.578c-.136.05-.285.1-.361.122l-.057.02a9 9 0 0 1-.378.124c.26-.382.52-.77.75-1.178.509-.898.79-1.748.86-2.598a6.999 6.999 0 0 0-.694-3.63 6.9 6.9 0 0 0-1.874-2.327q.324-.454.55-.963zm.86 11.33.041-.012q.054-.02.143-.046v3.901H.802v-3.942c.967-.218 2.26-.627 3.253-1.641.023-.02.044-.044.064-.064q.111-.116.215-.243c.353-.428.653-.894.945-1.344.202-.313.41-.635.632-.937.6-.817 1.595-1.856 2.936-2.158a3.6 3.6 0 0 1 1.98.117c.442.156.829.356 1.149.594.322.238.57.515.74.82.128.227.215.483.26.76-.534-.195-1.031-.23-1.479-.108-.832.23-1.313 1.109-1.344 1.82a2.11 2.11 0 0 0 1.05 1.887c.704.397 1.643.377 2.65-.056.672-.29 1.325-.704 2.119-1.347q.124-.103.243-.202c.42-.348.78-.648 1.265-.82q.058-.022.12-.04c.45-.133.932-.123 1.36.028q.195.07.37.174a2 2 0 0 0-.132.074 2.04 2.04 0 0 0-.748.71c-.407.68-.108 1.512.384 1.953.865.775 2.127.335 2.734.123M19.884 7.45l-.02.056a4.9 4.9 0 0 1-.771 1.303.4.4 0 0 0-.087.307.4.4 0 0 0 .166.277 6.1 6.1 0 0 1 1.948 2.275 6.15 6.15 0 0 1 .614 3.21c-.059.73-.307 1.473-.757 2.266-.333.59-.738 1.155-1.13 1.703a.9.9 0 0 1-.478-.215c-.253-.228-.41-.643-.228-.945.095-.159.251-.302.46-.425.15-.087.323-.161.536-.23a.45.45 0 0 0 .325-.323.45.45 0 0 0-.118-.422 2.9 2.9 0 0 0-1.116-.725 3.04 3.04 0 0 0-2.022.013c-.615.22-1.065.597-1.503.957l-.238.198c-.732.593-1.329.972-1.93 1.233-.446.192-1.29.459-1.938.093a1.3 1.3 0 0 1-.64-1.152c.018-.423.31-.958.752-1.078.438-.123.932.043 1.273.207.381.23.601.113.717-.023.112-.133.115-.284.117-.333a3.3 3.3 0 0 0-.399-1.671 3.45 3.45 0 0 0-.96-1.073 5 5 0 0 0-1.365-.706 4.38 4.38 0 0 0-2.424-.144c-1.582.359-2.724 1.539-3.405 2.466-.235.32-.45.655-.66.977-.292.451-.566.876-.888 1.27l-.039.046c-.325-.123-.617-.373-.819-.563a5.4 5.4 0 0 1-.86-1.027 7.3 7.3 0 0 1-.66-1.354A8.2 8.2 0 0 1 .8 10.99V8.026a6.92 6.92 0 0 0 4.247 1.438h6.188a.401.401 0 0 0 .31-.658 4.86 4.86 0 0 1-1.076-3.763c.282-2.191 2.082-3.96 4.278-4.208a4.86 4.86 0 0 1 3.83 1.21 4.88 4.88 0 0 1 1.559 2.814 4.8 4.8 0 0 1-.253 2.59m1.131-1.754q0-.28-.03-.56h2.178a2.49 2.49 0 0 1-2.355 2.08 5.7 5.7 0 0 0 .207-1.52"/></g><defs><clipPath id="a"><path fill="currentColor" d="M0 0h24v24H0z"/></clipPath></defs></svg>
