<svg viewBox="0 0 24 24" fill="none" xmlns="http://www.w3.org/2000/svg"><path d="M14.85 9.184v-.77c.653-.07 1.175-.601 1.175-1.271v-.96c0-.681-.522-1.222-1.184-1.282l.431-2.31c.03-.15-.01-.3-.11-.41A.53.53 0 0 0 14.78 2H9.21c-.151 0-.292.07-.382.18s-.13.26-.11.41l.431 2.311c-.662.06-1.184.6-1.184 1.281v.96c0 .67.522 1.211 1.174 1.271v.77C6.098 10.275 4 13.057 4 16.058 4 19.729 7.061 22 12 22s8-2.281 8-5.943c0-3.001-2.098-5.783-5.14-6.873zm-.672-6.193-.351 1.88h-3.664l-.351-1.88zm-5.22 4.142v-.96c0-.171.131-.301.302-.301h5.47c.17 0 .301.13.301.3v.96c0 .17-.13.3-.3.3H9.26a.295.295 0 0 1-.301-.3m.824 2.881c.21-.06.351-.26.351-.48v-1.1h3.714v1.1c0 .22.14.41.351.48 1.917.59 3.463 2.001 4.236 3.682-1.204.9-2.75 1.83-5.711-.06-1.727-1.11-3.724-1.961-7.268.26.743-1.77 2.33-3.272 4.337-3.892zM11.99 21c-4.386 0-6.996-1.851-6.996-4.943 0-.23.03-.45.06-.67 3.975-2.892 5.721-1.791 7.127-.9 1.445.92 2.64 1.25 3.643 1.25 1.285 0 2.239-.54 2.961-1.05.12.45.201.91.201 1.38 0 3.102-2.62 4.942-6.996 4.942z" fill="currentColor"/><path d="M9.208 15.672a1.411 1.411 0 1 0 0 2.82 1.411 1.411 0 1 0 0-2.82m0 2.33a.915.915 0 0 1-.913-.91c0-.5.411-.91.913-.91s.914.41.914.91-.412.91-.914.91M14.068 17.5c-.592 0-1.064.48-1.064 1.06s.482 1.06 1.064 1.06 1.064-.48 1.064-1.06-.482-1.06-1.064-1.06m0 1.62a.56.56 0 1 1 0-1.12.56.56 0 1 1 0 1.12" fill="currentColor"/></svg>
