<svg width="24" height="24" fill="none" xmlns="http://www.w3.org/2000/svg"><path d="M15.93 7.18c.6.86 1.6 1.42 2.73 1.42C20.5 8.6 22 7.12 22 5.3 22 3.48 20.5 2 18.66 2c-1.42 0-2.64.89-3.11 2.14-3.2.1-5.54.79-7.33 2.17-2.56 1.95-3.91 4.99-4.06 9.06C2.93 15.61 2 16.68 2 17.95v1.42C2 20.82 3.19 22 4.66 22h13.21c1.46 0 2.66-1.18 2.66-2.63v-1.42c0-1.41-1.15-2.57-2.57-2.62.04-1.34-.07-2.75-.96-4.04-.2-.29-.44-.57-.68-.85-.21-.25-.43-.51-.62-.78-.38-.55-.6-1.7-.32-2.21.07-.13.18-.29.55-.27Zm2.73-4.17c1.28 0 2.32 1.03 2.32 2.29s-1.04 2.29-2.32 2.29c-1.28 0-2.31-1.03-2.31-2.29s1.04-2.29 2.31-2.29ZM17.2 16.34h.67c.9 0 1.64.72 1.64 1.61v1.42c0 .9-.74 1.62-1.64 1.62h-.7c.56-1.56.5-3.51.03-4.65ZM3.02 19.37v-1.42c0-.89.73-1.61 1.64-1.61h.04l-.03.03c.45.45.85 2.83.01 4.62h-.02c-.91 0-1.64-.72-1.64-1.62Zm5.46 1.62H5.76c.57-1.55.51-3.51.04-4.65h2.7l-.03.03c.45.45.85 2.83.01 4.62Zm3.8 0H9.56c.57-1.55.51-3.51.04-4.65h2.7l-.03.03c.45.45.85 2.83.01 4.62Zm3.81 0h-2.73c.57-1.55.51-3.51.04-4.65h2.71l-.03.03c.44.45.84 2.83.01 4.62Zm-1.23-10.76c.2.3.44.58.69.86.21.25.43.5.61.77.7 1 .82 2.12.78 3.47H5.18c.15-3.72 1.38-6.48 3.66-8.23 1.57-1.2 3.65-1.82 6.5-1.93-.01.04-.01.09-.01.13 0 .32.05.63.14.92-.44.1-.77.36-.98.75-.54.97-.13 2.54.37 3.26Z" fill="#DC79EB"/></svg>
