<svg viewBox="0 0 24 24" fill="none" xmlns="http://www.w3.org/2000/svg">
<path d="M21.02 12.0178C20.97 11.9278 20.88 11.8778 20.79 11.8778C20.71 11.8778 20.63 11.9078 20.58 11.9778L19.27 13.8478L20.1 13.9178C20.07 14.1078 20.03 14.3078 19.98 14.4978C19.48 16.3178 18.01 17.1478 16.5 17.1478C14.55 17.1478 12.53 15.7478 12.53 13.3078V11.4678C12.53 9.95781 13.47 9.02781 14.63 9.02781C14.84 9.60781 15.41 10.0378 16.07 10.0378C16.92 10.0378 17.61 9.35781 17.61 8.52781C17.61 7.69781 16.92 7.01781 16.07 7.01781C15.79 7.01781 15.52 7.08781 15.29 7.22781C14.52 7.67781 13.69 8.02781 12.8 8.02781H12.53V6.70781C13.62 6.46781 14.43 5.51781 14.43 4.38781C14.43 3.06781 13.35 2.00781 12.01 2.00781C10.67 2.00781 9.58999 3.06781 9.58999 4.38781C9.58999 5.52781 10.41 6.48781 11.51 6.71781V8.02781H11.22C10.33 8.02781 9.49999 7.67781 8.72999 7.22781C8.49999 7.08781 8.22999 7.01781 7.94999 7.01781C7.09999 7.01781 6.40999 7.68781 6.40999 8.52781C6.40999 9.36781 7.09999 10.0378 7.94999 10.0378C8.61999 10.0378 9.17999 9.60781 9.38999 9.02781H9.41999C10.57 9.02781 11.51 9.96781 11.51 11.1178V13.3078C11.51 15.7678 9.49999 17.1678 7.51999 17.1678C6.00999 17.1678 4.51999 16.3378 4.00999 14.5078C3.95999 14.3078 3.91999 14.1178 3.87999 13.9178L4.71999 13.8478L3.39999 11.9778C3.34999 11.9078 3.27999 11.8778 3.19999 11.8778C3.10999 11.8778 3.01999 11.9278 2.96999 12.0178L1.98999 14.0678L2.86999 13.9978C3.33999 17.1878 6.16999 19.7578 9.83999 20.4878C10.74 20.6678 11.54 21.1978 12.01 21.9978H12.02C12.49 21.1978 13.28 20.6678 14.18 20.4778C17.82 19.7278 20.63 17.1678 21.1 13.9978L21.98 14.0678L21 12.0178H21.02ZM16.08 8.01781C16.37 8.01781 16.6 8.24781 16.6 8.52781C16.6 8.80781 16.37 9.03781 16.08 9.03781C15.79 9.03781 15.56 8.80781 15.56 8.52781C15.56 8.24781 15.8 8.01781 16.08 8.01781ZM7.94999 9.03781C7.65999 9.03781 7.42999 8.80781 7.42999 8.52781C7.42999 8.24781 7.65999 8.01781 7.94999 8.01781C8.23999 8.01781 8.46999 8.24781 8.46999 8.52781C8.46999 8.80781 8.22999 9.03781 7.94999 9.03781ZM10.6 4.37781C10.6 3.61781 11.24 2.99781 12.01 2.99781C12.78 2.99781 13.42 3.61781 13.42 4.37781C13.42 5.13781 12.79 5.75781 12.01 5.75781C11.23 5.75781 10.6 5.13781 10.6 4.37781ZM12.4 9.02781C12.27 9.16781 12.16 9.32781 12.06 9.48781C11.95 9.32781 11.83 9.16781 11.7 9.02781H12.4ZM14 19.4978C13.26 19.6578 12.58 19.9878 12.03 20.4678C11.48 19.9878 10.8 19.6578 10.05 19.5078C8.79999 19.2578 7.65999 18.7678 6.70999 18.1178C6.96999 18.1578 7.24999 18.1778 7.52999 18.1778C9.32999 18.1778 11.18 17.1978 12.03 15.4778C12.89 17.1878 14.71 18.1578 16.51 18.1578C16.79 18.1578 17.07 18.1278 17.34 18.0878C16.39 18.7478 15.26 19.2378 14.01 19.4978H14Z" fill="currentColor"/>
</svg>
