<svg viewBox="0 0 24 24" fill="none" xmlns="http://www.w3.org/2000/svg"><path fill-rule="evenodd" clip-rule="evenodd" d="m12.5 7.63-.03.03a.73.73 0 0 1-.94 0l-.04-.03C9.66 6.06 8.46 5.03 8.5 3.75c.02-.57.33-1.1.82-1.42a2.1 2.1 0 0 1 2.68.36 2.1 2.1 0 0 1 2.68-.36c.5.31.8.85.82 1.42.05 1.27-1.15 2.3-2.97 3.86l-.02.02Zm-3-3.85c0 .28.1.62.55 1.15.44.51 1.08 1.07 1.95 1.82.87-.75 1.52-1.31 1.95-1.83.45-.52.56-.86.55-1.14a.78.78 0 0 0-.36-.61 1.1 1.1 0 0 0-1.4.2l-.74.81-.74-.82c-.33-.36-.94-.49-1.4-.2a.78.78 0 0 0-.36.62ZM5.19 2.96l-1.06 1.2a.4.4 0 0 1-.22.12l-1.57.32a.4.4 0 0 0-.18.7l1.2 1.05c.06.06.1.14.12.22l.32 1.57a.4.4 0 0 0 .7.18l1.05-1.2A.4.4 0 0 1 5.77 7l1.57-.32a.4.4 0 0 0 .18-.7l-1.2-1.05a.4.4 0 0 1-.12-.22l-.32-1.57a.4.4 0 0 0-.7-.18Zm.47 2.72.3.26-.39.08c-.3.06-.57.22-.77.44l-.26.3-.08-.39a1.4 1.4 0 0 0-.44-.77l-.3-.26.39-.08c.3-.06.56-.22.77-.44l.26-.3.08.39c.06.3.22.57.44.77ZM18.83 2.96l1.06 1.2c.06.06.14.1.22.12l1.57.32a.4.4 0 0 1 .18.7l-1.2 1.05a.4.4 0 0 0-.12.22l-.32 1.57a.4.4 0 0 1-.7.18l-1.05-1.2a.4.4 0 0 0-.22-.12l-1.57-.32a.4.4 0 0 1-.18-.7l1.2-1.05a.4.4 0 0 0 .12-.22l.32-1.57a.4.4 0 0 1 .69-.18ZM18.8 4.9c-.06.3-.22.57-.44.77l-.3.26.39.08c.3.06.56.22.76.44l.27.3.08-.39c.06-.3.22-.56.44-.77l.3-.26-.39-.08a1.4 1.4 0 0 1-.77-.44l-.26-.3-.08.39Z" fill="currentColor"/><path d="M12.5 9.5a.5.5 0 0 0-1 0V11a.5.5 0 0 0 1 0V9.5ZM17.45 8.28a.5.5 0 0 1-.23.67c-.43.21-.73.48-.92.8-.19.31-.3.72-.3 1.25a.5.5 0 0 1-1 0c0-.67.14-1.26.45-1.77.3-.51.76-.9 1.33-1.18a.5.5 0 0 1 .67.23ZM6.78 8.95a.5.5 0 0 1 .44-.9c.57.29 1.02.67 1.33 1.18.31.5.45 1.1.45 1.77a.5.5 0 0 1-1 0c0-.53-.11-.94-.3-1.25-.2-.32-.5-.59-.92-.8Z" fill="currentColor"/><path fill-rule="evenodd" clip-rule="evenodd" d="M5 16.17v3.58l.02.14c.06.52.25 2.11 2.55 2.11h8.86c2.3 0 2.49-1.59 2.55-2.11l.02-.14v-3.58c.46-.6 1.36-1.65 2.05-2.46l.33-.39a2.33 2.33 0 0 0-.03-3.17.5.5 0 0 0-.73.03L18.27 13H5.73l-2.35-2.82a.5.5 0 0 0-.73-.03c-.23.23-.52.67-.62 1.23-.1.59.02 1.28.59 1.94l.33.39c.69.8 1.59 1.86 2.05 2.46Zm1 3.48.04.27c.02.18.03.32.17.55.1.19.38.53 1.36.53H10v-7H6v5.65Zm-1-5.07v-.9l-1.94-2.32-.04.19c-.05.3 0 .7.36 1.13l.32.37L5 14.58ZM18 14v5.65l-.04.27c-.02.18-.03.32-.17.55-.1.19-.38.53-1.36.53H14v-7h4Zm2.3-.95L19 14.58v-.9l1.94-2.32.04.19c.05.3 0 .7-.36 1.13l-.32.37ZM13 21v-7h-2v7h2Z" fill="currentColor"/></svg>
