<svg viewBox="0 0 24 24" fill="none" xmlns="http://www.w3.org/2000/svg">
<path fill-rule="evenodd" clip-rule="evenodd" d="M9.81725 17.0771C10.5096 17.0771 11.071 16.5322 11.071 15.8601V15.6987H13.0305V15.8602C13.0305 16.5323 13.5918 17.0771 14.2842 17.0771H14.6903C14.9592 17.0771 15.2083 16.9949 15.4124 16.8551C15.8952 18.108 17.1398 19 18.599 19C20.4773 19 22 17.522 22 15.6987L21.8985 14.9104L20.6854 6.71671C20.682 6.69408 20.6806 6.6712 20.6792 6.64837L20.6791 6.64661C20.6635 6.38846 20.4769 6.17323 20.2154 6.10911C19.8417 6.01748 19.4661 5.9322 19.0901 5.85327C19.0905 5.8383 19.0907 5.82327 19.0907 5.80821V5.70966C19.0907 4.76544 18.3021 4 17.3293 4H16.6187C15.813 4 15.1337 4.52504 14.9241 5.24184C12.9782 5.07678 11.0216 5.07712 9.07557 5.24293C8.86632 4.52557 8.18674 4 7.38069 4H6.67003C5.69728 4 4.90871 4.76544 4.90871 5.70966V5.80821C4.90871 5.8242 4.90893 5.84013 4.90938 5.85602C4.59767 5.92157 4.28668 5.99149 3.97651 6.06579L3.79817 6.1085C3.52906 6.17296 3.33659 6.39435 3.32084 6.65975C3.31946 6.68306 3.31805 6.70684 3.31462 6.72995L2.10152 14.9104L2 15.6987C2 17.522 3.52269 19 5.40102 19C6.88307 19 8.14371 18.0798 8.60967 16.796C8.82696 16.9715 9.10636 17.0771 9.41116 17.0771H9.81725ZM9.0405 15.8601C9.0405 16.0588 9.20645 16.2199 9.41116 16.2199H9.81725C10.022 16.2199 10.1879 16.0588 10.1879 15.8601V15.6987H9.30964C9.21106 15.6987 9.11954 15.7262 9.0405 15.7735V15.8601ZM13.9135 15.8602C13.9135 16.0589 14.0795 16.22 14.2842 16.22H14.6903C14.895 16.22 15.0609 16.0589 15.0609 15.8602V15.8513C14.9639 15.7575 14.8347 15.6987 14.6904 15.6987H13.9135V15.8602ZM7.38069 4.85715H6.67003C6.19437 4.85715 5.80659 5.22426 5.79175 5.68246C6.58035 5.53803 7.3734 5.42126 8.16845 5.33231C8.02504 5.05077 7.72616 4.85715 7.38069 4.85715ZM17.3293 4.85715H16.6187C16.2738 4.85715 15.9753 5.05013 15.8316 5.33092C16.6264 5.41956 17.4188 5.5359 18.2071 5.67996C18.191 5.22288 17.8042 4.85715 17.3293 4.85715ZM19.8199 6.89674C14.687 5.66816 9.32252 5.66816 4.18807 6.89797L4.18162 6.89952L2.97673 15.0246L2.88355 15.7482C2.91068 17.0752 4.0274 18.1429 5.40102 18.1429C6.66359 18.1429 7.71051 17.24 7.89128 16.0634C7.98497 15.4534 8.51423 14.8416 9.30964 14.8416H14.6904C15.4858 14.8416 16.015 15.4534 16.1087 16.0634C16.2895 17.24 17.3364 18.1429 18.599 18.1429C19.9726 18.1429 21.0893 17.0752 21.1164 15.7482L21.0233 15.0245L19.8199 6.89674Z" fill="currentColor"/>
<path fill-rule="evenodd" clip-rule="evenodd" d="M16.3015 12.5793C16.3015 12.4289 16.1801 12.3069 16.0305 12.3069C15.8808 12.3069 15.7595 12.4289 15.7595 12.5793C15.7595 12.7297 15.8808 12.8516 16.0305 12.8516C16.1801 12.8516 16.3015 12.7297 16.3015 12.5793ZM16.0305 11.4134C16.6712 11.4134 17.1906 11.9354 17.1906 12.5793C17.1906 13.2232 16.6712 13.7451 16.0305 13.7451C15.3898 13.7451 14.8704 13.2232 14.8704 12.5793C14.8704 11.9354 15.3898 11.4134 16.0305 11.4134Z" fill="currentColor"/>
<path fill-rule="evenodd" clip-rule="evenodd" d="M16.3015 8.91096C16.3015 8.76056 16.1801 8.63863 16.0305 8.63863C15.8808 8.63863 15.7595 8.76056 15.7595 8.91096C15.7595 9.06137 15.8808 9.18329 16.0305 9.18329C16.1801 9.18329 16.3015 9.06137 16.3015 8.91096ZM16.0305 7.74512C16.6712 7.74512 17.1906 8.26708 17.1906 8.91096C17.1906 9.55484 16.6712 10.0768 16.0305 10.0768C15.3898 10.0768 14.8704 9.55484 14.8704 8.91096C14.8704 8.26708 15.3898 7.74512 16.0305 7.74512Z" fill="currentColor"/>
<path fill-rule="evenodd" clip-rule="evenodd" d="M14.1906 11.0321C14.3403 11.0321 14.4616 10.9102 14.4616 10.7598C14.4616 10.6094 14.3403 10.4875 14.1906 10.4875C14.0409 10.4875 13.9196 10.6094 13.9196 10.7598C13.9196 10.9102 14.0409 11.0321 14.1906 11.0321ZM15.3507 10.7598C15.3507 11.4037 14.8313 11.9256 14.1906 11.9256C13.5499 11.9256 13.0305 11.4037 13.0305 10.7598C13.0305 10.1159 13.5499 9.59394 14.1906 9.59394C14.8313 9.59394 15.3507 10.1159 15.3507 10.7598Z" fill="currentColor"/>
<path fill-rule="evenodd" clip-rule="evenodd" d="M17.8704 11.0321C18.0201 11.0321 18.1414 10.9102 18.1414 10.7598C18.1414 10.6094 18.0201 10.4875 17.8704 10.4875C17.7208 10.4875 17.5995 10.6094 17.5995 10.7598C17.5995 10.9102 17.7208 11.0321 17.8704 11.0321ZM19.0305 10.7598C19.0305 11.4037 18.5111 11.9256 17.8704 11.9256C17.2297 11.9256 16.7104 11.4037 16.7104 10.7598C16.7104 10.1159 17.2297 9.59394 17.8704 9.59394C18.5111 9.59394 19.0305 10.1159 19.0305 10.7598Z" fill="currentColor"/>
<path fill-rule="evenodd" clip-rule="evenodd" d="M7.44566 8.64962C7.29341 8.64962 7.16998 8.77304 7.16998 8.9253V10.3138H5.88581C5.73356 10.3138 5.61013 10.4372 5.61013 10.5894V10.9014C5.61013 11.0537 5.73356 11.1771 5.88581 11.1771H7.16998V12.5649C7.16998 12.7172 7.29341 12.8406 7.44566 12.8406H8.0696C8.22185 12.8406 8.34527 12.7172 8.34527 12.5649V11.1771H9.52545C9.6777 11.1771 9.80112 11.0537 9.80112 10.9014V10.5894C9.80112 10.4372 9.6777 10.3138 9.52545 10.3138H8.34527V8.9253C8.34527 8.77305 8.22185 8.64962 8.0696 8.64962H7.44566ZM6.26548 8.9253C6.26548 8.2735 6.79386 7.74512 7.44566 7.74512H8.0696C8.72139 7.74512 9.24978 8.2735 9.24978 8.9253V9.40926H9.52545C10.1772 9.40926 10.7056 9.93765 10.7056 10.5894V10.9014C10.7056 11.5532 10.1772 12.0816 9.52545 12.0816H9.24978V12.5649C9.24978 13.2167 8.72139 13.7451 8.0696 13.7451H7.44566C6.79386 13.7451 6.26548 13.2167 6.26548 12.5649V12.0816H5.88581C5.23401 12.0816 4.70563 11.5532 4.70563 10.9014V10.5894C4.70563 9.93765 5.23401 9.40926 5.88581 9.40926H6.26548V8.9253Z" fill="currentColor"/>
</svg>
