<svg viewBox="0 0 24 24" fill="none" xmlns="http://www.w3.org/2000/svg">
<path d="M3.80005 8C4.00005 8.1 4.20005 8.2 4.50005 8.2C4.90005 8.2 5.20005 8 5.40005 7.7C6.00005 6.8 6.70005 6.1 7.50005 5.5C8.00005 5.2 8.10005 4.5 7.80005 4C7.40005 3.5 6.70005 3.3 6.20005 3.7C5.10005 4.5 4.20005 5.4 3.50005 6.5C3.20005 7 3.30005 7.7 3.80005 8Z" fill="currentColor"/>
<path d="M4.10002 14.4C4.30002 14.2 4.30002 13.9 4.30002 13.6C4.20002 13.1 4.20002 12.6 4.20002 12.1C4.20002 11.6 4.20002 11.1 4.30002 10.6C4.40002 10.3 4.30002 10 4.10002 9.80001C3.90002 9.40001 3.70002 9.2 3.40002 9.2C3.10002 9.1 2.80002 9.2 2.60002 9.4C2.40002 9.6 2.20002 9.80001 2.10002 10.1C2.00002 10.7 1.90002 11.4 1.90002 12C1.90002 12.6 2.00002 13.3 2.10002 13.9C2.20002 14.4 2.70002 14.8 3.20002 14.8C3.30002 14.8 3.30002 14.8 3.40002 14.8C3.70002 14.8 3.90002 14.6 4.10002 14.4Z" fill="currentColor"/>
<path d="M5.40007 16.3C5.20007 16 5.00007 15.9 4.70007 15.8C4.40007 15.7 4.10007 15.8 3.90007 16C3.70007 16.2 3.50007 16.4 3.40007 16.7C3.30007 17 3.40007 17.3 3.60007 17.5C4.30007 18.6 5.20007 19.5 6.30007 20.3C6.50007 20.4 6.70007 20.5 6.90007 20.5C7.30007 20.5 7.60007 20.3 7.80007 20C8.00007 19.8 8.00007 19.5 8.00007 19.2C7.90007 18.9 7.80007 18.6 7.50007 18.5C6.70007 17.9 6.00007 17.2 5.40007 16.3Z" fill="currentColor"/>
<path d="M12 1.9C11.2 1.9 10.5 2 9.79998 2.1C9.19998 2.2 8.79998 2.8 8.89998 3.4C8.99998 4 9.49998 4.3 9.99998 4.3C10.1 4.3 10.2 4.3 10.2 4.3C10.8 4.2 11.4 4.1 11.9 4.1C16.2 4.1 19.8 7.6 19.8 12C19.8 16.3 16.3 19.9 11.9 19.9C11.3 19.9 10.7 19.8 10.2 19.7C9.89998 19.6 9.59998 19.7 9.39998 19.8C9.19998 20 8.99998 20.2 8.89998 20.5C8.79998 21.1 9.09998 21.7 9.79998 21.8C10.5 22 11.3 22 12 22C17.6 22 22.1 17.5 22.1 11.9C22.1 6.3 17.6 1.9 12 1.9Z" fill="currentColor"/>
<path d="M9.6 9.6C10 9.6 10.3 9.4 10.4 9C10.6 8.4 11.2 7.9 11.9 7.9C12.8 7.9 13.5 8.6 13.5 9.5C13.5 9.9 13.3 10.3 13 10.6L12 11.6C11.4 12.2 11.1 12.9 11 13.7C11 13.9 11 14.2 11.2 14.4C11.4 14.6 11.6 14.7 11.8 14.7H12.1C12.5 14.7 12.9 14.4 12.9 13.9C13 13.1 13.4 12.7 13.8 12.2L14.6 11.4C15.1 10.9 15.4 10.1 15.4 9.4C15.4 7.5 13.8 5.9 11.9 5.9C10.3 5.9 8.9 6.9 8.5 8.4C8.5 8.7 8.5 9 8.7 9.2C8.9 9.4 9.1 9.5 9.4 9.5H9.6V9.6Z" fill="currentColor"/>
<path d="M11.9 18.1C12.4523 18.1 12.9 17.6523 12.9 17.1C12.9 16.5477 12.4523 16.1 11.9 16.1C11.3477 16.1 10.9 16.5477 10.9 17.1C10.9 17.6523 11.3477 18.1 11.9 18.1Z" fill="currentColor"/>
</svg>
