<svg width="19" height="20" viewBox="0 0 24 24" fill="none" xmlns="http://www.w3.org/2000/svg">
<path d="M5.347 16.8955C6.17525 16.8957 6.847 17.5672 6.847 18.3955C6.84687 19.2237 6.17517 19.8953 5.347 19.8955C4.51865 19.8955 3.84713 19.2238 3.847 18.3955C3.847 17.5671 4.51857 16.8955 5.347 16.8955Z" fill="#C1B3DB"/>
<path d="M13.597 16.8955C14.4253 16.8957 15.097 17.5672 15.097 18.3955C15.0969 19.2237 14.4252 19.8953 13.597 19.8955C12.7687 19.8955 12.0971 19.2238 12.097 18.3955C12.097 17.5671 12.7686 16.8955 13.597 16.8955Z" fill="#C1B3DB"/>
<path d="M6.472 11C6.74789 11.0002 6.97187 11.2241 6.972 11.5V13.5C6.972 13.776 6.74797 13.9998 6.472 14C6.19586 14 5.972 13.7761 5.972 13.5V11.5C5.97213 11.224 6.19594 11 6.472 11Z" fill="#C1B3DB"/>
<path d="M9.472 11C9.74789 11.0002 9.97187 11.2241 9.972 11.5V13.5C9.972 13.776 9.74797 13.9998 9.472 14C9.19586 14 8.972 13.7761 8.972 13.5V11.5C8.97213 11.224 9.19594 11 9.472 11Z" fill="#C1B3DB"/>
<path d="M12.472 11C12.7479 11.0002 12.9719 11.2241 12.972 11.5V13.5C12.972 13.776 12.748 13.9998 12.472 14C12.1959 14 11.972 13.7761 11.972 13.5V11.5C11.9721 11.224 12.1959 11 12.472 11Z" fill="#C1B3DB"/>
<path fill-rule="evenodd" clip-rule="evenodd" d="M15.4896 0C16.1502 0.000224602 16.7076 0.430021 16.9271 1.01855C17.2938 2.00256 17.6905 2.61007 18.4837 3.3623C18.7635 3.6277 19.0235 4.06871 18.9144 4.58105C18.5965 6.07108 17.0726 6.99987 15.3216 7C15.2022 6.99999 15.0855 6.99378 14.972 6.98438V9H15.1116C16.0481 9.00031 16.7559 9.84946 16.5872 10.7705L15.8753 14.6426C15.7434 15.36 15.1145 15.8784 14.3851 15.8711L4.39094 15.7686C3.68644 15.7611 3.08251 15.264 2.9388 14.5742L2.15364 10.8057C1.95985 9.87442 2.67021 9.00019 3.62141 9H3.972V6.98438C3.85841 6.99382 3.74195 6.99998 3.62239 7C1.85596 7 0.31987 6.05388 0.0218029 4.54102C-0.0721284 4.06372 0.152624 3.6483 0.405592 3.38574C1.20386 2.55751 1.6201 1.92953 2.00911 0.974609C2.24005 0.40804 2.78738 0.000196786 3.43001 0H15.4896ZM3.62141 10C3.30461 10.0002 3.0679 10.2914 3.13215 10.6016L3.91731 14.3701C3.96522 14.6001 4.16679 14.7661 4.40169 14.7686L14.3948 14.8711C14.6378 14.8734 14.8479 14.7009 14.8919 14.4619L15.6029 10.5898C15.6588 10.2831 15.4235 10.0003 15.1116 10H3.62141ZM12.6195 5.88574C12.0005 6.51338 11.013 6.99992 9.472 7C7.93043 7 6.94253 6.51363 6.32356 5.88574C5.9794 6.2441 5.52752 6.56167 4.972 6.76562V9H13.972V6.7666C13.4156 6.56272 12.9639 6.24451 12.6195 5.88574ZM3.43001 1C3.22442 1.0002 3.02525 1.13281 2.93587 1.35156C2.49399 2.43632 2.00239 3.16911 1.12532 4.0791C1.00799 4.20084 0.993206 4.30107 1.00227 4.34766C1.17671 5.23336 2.15124 6 3.62239 6C4.77889 5.99973 5.52997 5.40088 5.90071 4.81934L5.93782 4.76855C6.03201 4.65553 6.17233 4.58801 6.32161 4.58789C6.49221 4.58802 6.65172 4.6755 6.74348 4.81934C7.0937 5.36869 7.82744 6 9.472 6C11.1163 5.9999 11.8503 5.36865 12.2005 4.81934L12.2376 4.76855C12.3319 4.65537 12.4729 4.58789 12.6224 4.58789C12.7928 4.58815 12.9516 4.67566 13.0433 4.81934C13.4141 5.40095 14.1649 5.99987 15.3216 6C16.7787 5.99987 17.7493 5.24651 17.9359 4.37207C17.9458 4.32429 17.9304 4.21608 17.7952 4.08789C16.8919 3.23115 16.4096 2.49526 15.9896 1.36816C15.9045 1.13994 15.7006 1.00023 15.4896 1H3.43001Z" fill="#C1B3DB"/>
</svg>
