<svg viewBox="0 0 24 24" fill="none" xmlns="http://www.w3.org/2000/svg">
<path d="M7.55041 18.3655C8.34452 18.3657 8.98857 19.0095 8.98857 19.8037C8.98845 20.5977 8.34444 21.2417 7.55041 21.2419C6.75621 21.2419 6.11237 20.5979 6.11224 19.8037C6.11224 19.0094 6.75613 18.3655 7.55041 18.3655Z" fill="currentColor"/>
<path d="M15.4603 18.3655C16.2544 18.3657 16.8985 19.0095 16.8985 19.8037C16.8984 20.5977 16.2543 21.2417 15.4603 21.2419C14.6661 21.2419 14.0223 20.5979 14.0222 19.8037C14.0222 19.0094 14.666 18.3655 15.4603 18.3655Z" fill="currentColor"/>
<path d="M8.62903 12.713C8.89354 12.7132 9.10829 12.9279 9.10842 13.1924V15.11C9.10842 15.3746 8.89362 15.5892 8.62903 15.5894C8.36427 15.5894 8.14964 15.3748 8.14964 15.11V13.1924C8.14977 12.9278 8.36435 12.713 8.62903 12.713Z" fill="currentColor"/>
<path d="M11.5054 12.713C11.7699 12.7132 11.9846 12.9279 11.9847 13.1924V15.11C11.9847 15.3746 11.77 15.5892 11.5054 15.5894C11.2406 15.5894 11.026 15.3748 11.026 15.11V13.1924C11.0261 12.9278 11.2407 12.713 11.5054 12.713Z" fill="currentColor"/>
<path d="M14.3817 12.713C14.6462 12.7132 14.861 12.9279 14.8611 13.1924V15.11C14.8611 15.3746 14.6463 15.5892 14.3817 15.5894C14.1169 15.5894 13.9023 15.3748 13.9023 15.11V13.1924C13.9024 12.9278 14.117 12.713 14.3817 12.713Z" fill="currentColor"/>
<path fill-rule="evenodd" clip-rule="evenodd" d="M17.2749 2.1665C17.9083 2.16672 18.4427 2.5788 18.6531 3.14307C19.0047 4.08651 19.3851 4.66898 20.1456 5.3902C20.4139 5.64466 20.6632 6.06748 20.5585 6.55871C20.2537 7.98732 18.7926 8.87781 17.1138 8.87794C16.9993 8.87793 16.8874 8.87198 16.7786 8.86296V10.7955H16.9125C17.8103 10.7958 18.489 11.6099 18.3273 12.493L17.6447 16.2055C17.5182 16.8933 16.9153 17.3903 16.2159 17.3833L6.63376 17.285C5.95831 17.2779 5.37927 16.8013 5.24148 16.1399L4.48869 12.5267C4.30288 11.6339 4.98397 10.7957 5.89595 10.7955H6.23209V8.86296C6.12318 8.87201 6.01152 8.87792 5.89689 8.87794C4.20328 8.87794 2.73051 7.97083 2.44473 6.52032C2.35467 6.0627 2.57016 5.66441 2.8127 5.41268C3.57806 4.61858 3.97715 4.01649 4.35011 3.10094C4.57154 2.55772 5.09631 2.16669 5.71244 2.1665H17.2749ZM5.89595 11.7543C5.59221 11.7545 5.36526 12.0336 5.42687 12.331L6.17966 15.9442C6.22559 16.1647 6.41885 16.3239 6.64406 16.3263L16.2253 16.4246C16.4583 16.4268 16.6596 16.2614 16.7019 16.0323L17.3835 12.3198C17.4371 12.0257 17.2115 11.7546 16.9125 11.7543H5.89595ZM14.5231 7.80962C13.9296 8.41138 12.9828 8.87787 11.5054 8.87794C10.0273 8.87794 9.08017 8.41163 8.48671 7.80962C8.15674 8.15321 7.72349 8.45768 7.19087 8.65323V10.7955H15.8199V8.65417C15.2864 8.45869 14.8533 8.1536 14.5231 7.80962ZM5.71244 3.12528C5.51533 3.12547 5.32437 3.25261 5.23867 3.46235C4.81501 4.50239 4.34367 5.20497 3.50276 6.07745C3.39027 6.19417 3.37609 6.29027 3.38478 6.33494C3.55203 7.18413 4.48638 7.91917 5.89689 7.91917C7.00572 7.91891 7.72584 7.34474 8.08129 6.78717L8.11687 6.73848C8.20718 6.63011 8.34172 6.56538 8.48484 6.56527C8.64841 6.56539 8.80134 6.64927 8.88932 6.78717C9.2251 7.31388 9.9286 7.91917 11.5054 7.91917C13.0819 7.91907 13.7856 7.31384 14.1214 6.78717L14.157 6.73848C14.2474 6.62996 14.3826 6.56527 14.5259 6.56527C14.6893 6.56552 14.8415 6.64942 14.9294 6.78717C15.2849 7.34481 16.0048 7.91904 17.1138 7.91917C18.5108 7.91904 19.4415 7.19674 19.6203 6.35834C19.6299 6.31253 19.6151 6.20879 19.4855 6.08588C18.6194 5.26446 18.157 4.55891 17.7543 3.47827C17.6727 3.25945 17.4772 3.1255 17.2749 3.12528H5.71244Z" fill="currentColor"/>
</svg>
