<svg xmlns="http://www.w3.org/2000/svg" viewBox="0 0 24 24" fill="none"><path d="M6.33 1.6a.5.5 0 0 1 .63.3l.11.34a.5.5 0 1 1-.95.32l-.1-.34a.5.5 0 0 1 .3-.63h.01ZM7.13 4a.5.5 0 0 1 .63.32l.67 2.01a.5.5 0 0 1-.95.32L6.8 4.64a.5.5 0 0 1 .32-.63ZM9 14.51a.5.5 0 0 1 .5.5v4a.5.5 0 0 1-1 0v-4a.5.5 0 0 1 .5-.5Zm6.5.5a.5.5 0 0 0-1 0v4a.5.5 0 0 0 1 0v-4Zm-3.5-.5a.5.5 0 0 1 .5.5v4a.5.5 0 0 1-1 0v-4a.5.5 0 0 1 .5-.5Z" fill="currentColor"/><path fill-rule="evenodd" clip-rule="evenodd" d="M11.5 2.5a1 1 0 0 0-1 1V9H3a1 1 0 0 0-1 1v2a1 1 0 0 0 1 1h.6l.52 5.75.02.15c.08.7.32 3.1 4 3.1h8.84c2.6 0 2.8-2.29 2.87-3.05l.02-.2.54-5.75H21a1 1 0 0 0 1-1v-2a1 1 0 0 0-1-1h-7.5V3.5a1 1 0 0 0-1-1h-1Zm1 6.5V3.5h-1V9h1Zm6.9 4H4.6l.52 5.62.03.26c.04.33.08.7.34 1.1.28.43.92 1.02 2.65 1.02h8.84c.55 0 .89-.13 1.1-.28.22-.15.38-.36.5-.61.2-.43.23-.79.26-1.12 0-.12.02-.25.04-.37L19.4 13Zm1.6-1v-2H3v2h18Z" fill="currentColor"/><path d="M17.04 1.9a.5.5 0 0 1 .95.32l-.11.34a.5.5 0 1 1-.95-.32l.1-.33Zm-.8 2.43a.5.5 0 0 1 .92-.07.5.5 0 0 1 .03.38l-.67 2.02a.5.5 0 1 1-.95-.32l.67-2.01Zm-13.1.81a.5.5 0 0 1 .71 0l1 1a.5.5 0 0 1-.7.71l-1-1a.5.5 0 0 1 0-.7Zm17 0a.5.5 0 0 1 .71.71l-1 1a.5.5 0 1 1-.7-.7l1-1Z" fill="currentColor"/></svg>
