<svg xmlns="http://www.w3.org/2000/svg" viewBox="0 0 24 24" fill="none"><path d="M11.96.244a1.3 1.3 0 0 1 .984-.224c.347.058.651.248.855.536.204.287.284.637.224.984-.047.28-.18.532-.38.726h.99c.529 0 .958.43.958.959v1.48c0 .36-.201.676-.497.839V7.96c0 .307-.095.592-.255.829h.059c1.32 0 2.5.788 3.008 2.006l1.58 3.789h.29a4.23 4.23 0 0 1 4.225 4.225v2.415c0 .2-.162.36-.361.36H21.03a2.78 2.78 0 0 1-2.752 2.416 2.78 2.78 0 0 1-2.752-2.415H8.475A2.78 2.78 0 0 1 5.723 24a2.78 2.78 0 0 1-2.753-2.415H.36A.36.36 0 0 1 0 21.225v-4.347a2.296 2.296 0 0 1 2.293-2.293h.249l.832-3.326A3.255 3.255 0 0 1 6.535 8.79h.674a1.47 1.47 0 0 1-.254-.83V5.545a.96.96 0 0 1-.498-.84v-1.48c0-.528.43-.957.957-.957h.991A1.32 1.32 0 0 1 8.25.557a1.32 1.32 0 0 1 1.839-.312c.24.17.504.585.81 1.268q.068.152.126.293l.126-.293c.306-.684.57-1.099.81-1.269M5.722 19.172a2.056 2.056 0 0 0-2.053 2.054c0 1.131.92 2.052 2.053 2.052 1.132 0 2.053-.92 2.053-2.052a2.056 2.056 0 0 0-2.053-2.054m12.556 0a2.056 2.056 0 0 0-2.053 2.054c0 1.131.921 2.052 2.053 2.052a2.056 2.056 0 0 0 2.053-2.052c0-1.132-.92-2.054-2.053-2.054M2.293 15.31c-.866 0-1.57.703-1.57 1.569v.604H1.81a.361.361 0 1 1 0 .723H.723v2.658H2.97a2.78 2.78 0 0 1 2.753-2.415 2.78 2.78 0 0 1 2.752 2.415h2.198V15.31zm9.103-.001v5.554h4.13a2.78 2.78 0 0 1 2.752-2.414 2.78 2.78 0 0 1 2.752 2.414h2.247v-2.052q-.002-.31-.053-.605h-1.035a.362.362 0 0 1 0-.723h.826a3.51 3.51 0 0 0-3.24-2.174zm-4.86-5.795c-1.094 0-2.051.694-2.4 1.713l-.06.208-.789 3.15h7.386V9.514zm4.86 0v5.071H18.7l-1.463-3.51a2.53 2.53 0 0 0-2.34-1.561zm.698-3.853V8.79h1.995a.96.96 0 0 0 .477-.732l.005-.098V5.661zm-1.617 0V8.79h1.094V5.661zm-3 0v2.3c0 .354.194.663.481.829h1.997V5.661zm-.062-2.873a.437.437 0 0 0-.436.436v1.48c0 .237.192.43.428.435h2.547v-2.35zm3.062 0v2.35h1.094v-2.35zm1.617 0v2.35h2.547a.437.437 0 0 0 .428-.435v-1.48a.436.436 0 0 0-.435-.435zM9.325.523a.797.797 0 0 0-.462 1.446c.236.167 1.084.26 1.78.288-.255-.649-.622-1.418-.858-1.586a.8.8 0 0 0-.46-.148m3.397 0a.8.8 0 0 0-.354.084l-.105.064c-.236.167-.603.937-.859 1.586.697-.027 1.544-.12 1.78-.287a.793.793 0 0 0 .189-1.11.8.8 0 0 0-.651-.337" fill="currentColor"/></svg>
