<svg viewBox="0 0 25 24" fill="none" xmlns="http://www.w3.org/2000/svg"><path fill-rule="evenodd" clip-rule="evenodd" d="M3.636 3.521A3.004 3.004 0 0 1 5.303 3h10.27c1.041 0 1.744.435 2.169 1.011a2.84 2.84 0 0 1 .534 1.628V12.5h1.08c.473 0 .716-.18.86-.375.161-.22.222-.501.222-.68V7.66a1.613 1.613 0 0 1-.858-.691 1.551 1.551 0 0 1-.2-1.07c.065-.367.26-.701.553-.942.293-.24.663-.373 1.046-.373.382 0 .752.132 1.045.373.292.24.488.575.553.943.064.368-.006.746-.2 1.069a1.614 1.614 0 0 1-.858.691v3.784c0 .349-.103.86-.426 1.299-.344.464-.911.813-1.736.813h-1.081v7.916c0 .14-.057.274-.159.373a.547.547 0 0 1-.382.155H3.141a.547.547 0 0 1-.383-.155.522.522 0 0 1-.158-.373V5.64c0-1.017.446-1.703 1.036-2.118Zm.631.858c-.311.218-.586.588-.586 1.26v1.055h13.514V5.64c0-.267-.087-.68-.331-1.011-.224-.304-.602-.572-1.29-.572H5.302c-.274 0-.696.084-1.036.323ZM12.33 7.75H8.546v6.861h3.784V7.75Zm1.08 0v6.861h3.785V7.75H13.41Zm-9.729 7.917v1.055h13.514v-1.055H3.68Zm0-7.917h3.784v6.861H3.681V7.75Zm13.514 10.028H3.68v3.166h13.514v-3.166ZM13.41 19.36c0-.14.057-.274.158-.373a.547.547 0 0 1 .382-.155h1.622c.143 0 .28.056.382.155a.521.521 0 0 1 0 .746.547.547 0 0 1-.382.155h-1.622a.547.547 0 0 1-.382-.155.522.522 0 0 1-.158-.373Zm7.027-13.194c0-.14.057-.275.158-.374a.547.547 0 0 1 .765 0 .521.521 0 0 1 0 .747.547.547 0 0 1-.765 0 .521.521 0 0 1-.158-.373ZM4.222 9.86c0-.14.057-.274.158-.373a.547.547 0 0 1 .382-.155h1.622a.55.55 0 0 1 .476.279.517.517 0 0 1-.026.541A8.25 8.25 0 0 0 6.2 11.28c-.22.475-.358.916-.358 1.221 0 .14-.057.274-.158.373a.547.547 0 0 1-.764 0 .522.522 0 0 1-.159-.373c0-.54.222-1.153.454-1.655.072-.157.148-.31.227-.456h-.68a.547.547 0 0 1-.383-.155.522.522 0 0 1-.158-.373Zm10.27-1.055a.547.547 0 0 0-.382.154.521.521 0 0 0 0 .747.547.547 0 0 0 .382.154h.681a8.91 8.91 0 0 0-.227.456c-.232.503-.454 1.116-.454 1.655 0 .14.057.274.158.373a.547.547 0 0 0 .765 0 .522.522 0 0 0 .158-.373c0-.305.138-.746.357-1.221a8.48 8.48 0 0 1 .633-1.125.52.52 0 0 0-.172-.745.55.55 0 0 0-.277-.075h-1.622Zm-4.865.527a.547.547 0 0 0-.382.155.522.522 0 0 0 0 .746.547.547 0 0 0 .382.155h.681c-.08.15-.155.302-.227.456-.233.502-.454 1.117-.454 1.655 0 .14.057.274.158.373a.547.547 0 0 0 .765 0 .521.521 0 0 0 .158-.373c0-.305.139-.746.357-1.221.181-.39.393-.767.633-1.126a.52.52 0 0 0-.172-.745.55.55 0 0 0-.277-.075H9.627Z" fill="currentColor"/></svg>
