<svg xmlns="http://www.w3.org/2000/svg" fill="none" viewBox="0 0 24 24">
  <path fill="currentColor" fill-rule="evenodd" d="M20.986 12.5a8.963 8.963 0 01-2.279 5.5l-1.416-1.416a6.97 6.97 0 001.691-4.084h2.004zm-4.403 4.791L18 18.708a8.963 8.963 0 01-5.5 2.278v-2.004a6.97 6.97 0 004.083-1.691zM18 5.292a8.964 8.964 0 00-5.5-2.278v2.004a6.97 6.97 0 014.083 1.691L18 5.292zm.707.707a8.963 8.963 0 012.28 5.501h-2.005a6.97 6.97 0 00-1.691-4.084L18.707 6v-.001zM3.014 11.5c.11-2.04.914-3.98 2.278-5.5L6.71 7.415A6.97 6.97 0 005.018 11.5H3.014zm4.403-4.791L6 5.292a8.964 8.964 0 015.5-2.278v2.004a6.97 6.97 0 00-4.083 1.691zM6 18.708a8.963 8.963 0 005.5 2.278v-2.004a6.97 6.97 0 01-4.083-1.691L6 18.708zm-.708-.707A8.964 8.964 0 013.014 12.5h2.004a6.97 6.97 0 001.691 4.084L5.292 18v.001zM22 12c0 5.523-4.477 10-10 10S2 17.523 2 12 6.477 2 12 2s10 4.477 10 10zm-4 0a6 6 0 11-12 0 6 6 0 0112 0zm-6-3.793l2.646 2.646c.209.21.534.645.692 1.118.154.46.125.859-.192 1.175-.305.305-.539.361-.772.34-.292-.027-.636-.176-1.15-.433a.5.5 0 00-.724.447c0 .833.198 1.463.546 1.95l.037.05h-2.165l.036-.05c.348-.487.546-1.117.546-1.95a.5.5 0 00-.724-.447c-.514.257-.858.406-1.15.433-.233.021-.467-.035-.772-.34-.317-.316-.346-.715-.192-1.175.158-.473.483-.909.692-1.117L12 8.207zM9.5 16.5a.5.5 0 01-.23-.944c.367-.19.662-.395.87-.688.104-.144.195-.322.26-.55-.22.084-.45.139-.683.164-.569.051-1.085-.143-1.57-.628-.684-.684-.655-1.535-.434-2.2a4.14 4.14 0 01.934-1.508l2.984-2.984a.499.499 0 01.737 0l2.985 2.984c.292.292.716.856.934 1.508.221.665.25 1.516-.434 2.2-.485.485-1.001.68-1.57.628a2.728 2.728 0 01-.682-.164c.064.228.155.406.258.55.21.293.504.499.87.688a.5.5 0 01-.23.944H9.5z" clip-rule="evenodd"/>
</svg>
