<svg viewBox="0 0 16 16" fill="none" xmlns="http://www.w3.org/2000/svg">
<path d="M8.00713 12.6667C7.0738 12.6667 6.14713 12.6667 5.2138 12.6667C4.08046 12.6667 3.48046 12.1397 3.24713 10.9456C2.9738 9.53805 2.70046 8.13718 2.44713 6.72963C2.38713 6.40276 2.30046 6.20931 1.96713 6.06922C1.42046 5.84909 1.20713 5.20869 1.40713 4.65501C1.58713 4.16137 2.1338 3.84784 2.62713 3.95457C3.18046 4.08132 3.5738 4.60831 3.4538 5.21536C3.38046 5.59559 3.4738 5.81573 3.74713 6.0292C3.9938 6.22265 4.20046 6.47614 4.44046 6.67627C5.2138 7.31667 6.22046 7.08986 6.62713 6.15594C6.88046 5.56891 7.0938 4.96187 7.28046 4.34815C7.32713 4.20139 7.2338 3.98126 7.14713 3.8345C6.82046 3.29416 6.86046 2.68712 7.28046 2.29354C7.68713 1.90663 8.2938 1.89996 8.7138 2.28687C9.1338 2.67377 9.16713 3.28082 8.86713 3.82783C8.76046 4.01461 8.72713 4.30146 8.78046 4.50825C8.92046 5.02857 9.12046 5.54223 9.32046 6.04254C9.74046 7.10987 10.7938 7.36336 11.6405 6.60956C11.8205 6.45613 11.9805 6.27602 12.1605 6.12259C12.4405 5.87577 12.6671 5.6623 12.5471 5.16866C12.4138 4.60831 12.8338 4.08132 13.3605 3.96124C13.8738 3.84117 14.4538 4.18138 14.6138 4.7017C14.7805 5.24871 14.5671 5.85576 14.0471 6.06922C13.7205 6.20264 13.6205 6.38942 13.5605 6.72296C13.3138 8.1105 13.0338 9.49803 12.7671 10.8789C12.5205 12.173 11.9538 12.6667 10.6871 12.6667C9.7938 12.6667 8.90046 12.6667 8.0138 12.6667H8.00713Z" fill="currentColor"/>
</svg>
