<svg xmlns="http://www.w3.org/2000/svg" fill="none" viewBox="0 0 32 32"><path fill="currentColor" fill-rule="evenodd" d="M25.841 8.254h-.003c-.365-1.633-1.855-2.84-3.597-2.84h-1.6c-1.227-2.4-3.867-4.08-6.974-4.08s-5.787 1.68-6.96 4.027h-1.68c-1.76 0-3.214 1.267-3.574 2.893h24.385l.003.014v-.014Zm3.174 1.307-.12-.04h-.587l-.123.034c-.15.04-.301.08-.437.153-.773.347-1.2.934-1.227 1.76-.013.84.4 1.454 1.174 1.814.16.093.2.173.2.32v5.2h-2.053v-6.574c0-.72-.654-1.293-1.44-1.293h-4.72c-.788 0-1.44.573-1.44 1.293v8.867c0 .707.652 1.294 1.44 1.294h4.72c.786 0 1.44-.587 1.44-1.294v-.96h2.64c.546 0 .8-.253.8-.773v-5.747c0-.173.04-.267.213-.333.773-.334 1.253-1.16 1.16-1.96-.093-.88-.747-1.574-1.653-1.76h.013Zm-4.974 4.76c0 .134 0 .294-.026.44a1.632 1.632 0 0 1-.16.534c-.16.334-.467.8-1.014 1.614-.006.013-.013.023-.02.033a8.05 8.05 0 0 0-.82 1.62c-.066.16-.106.307-.146.453-.08.307-.36.574-.667.574-.307 0-.587-.267-.52-.574.053-.293.147-.573.253-.893.214-.547.52-1.187.92-1.814l.279-.43c.33-.508.519-.8.615-1.023h-2.147a.59.59 0 0 1-.574-.587.57.57 0 0 1 .574-.573h2.88c.307 0 .56.253.56.573v.027l.013.027Zm-12.8-3.372h4.707c.813 0 1.44.573 1.44 1.293v8.867c0 .707-.627 1.294-1.44 1.294H11.24c-.814 0-1.44-.587-1.44-1.294v-8.867c0-.72.626-1.293 1.44-1.293Zm4.347 3.786c.026-.146.026-.306.026-.44v-.053c0-.32-.253-.6-.586-.6h-2.88a.584.584 0 0 0-.574.6c0 .333.253.613.573.613h2.174c-.113.205-.296.489-.604.965l-.316.489c-.413.64-.72 1.293-.934 1.853-.12.32-.2.614-.253.894a.517.517 0 0 0 .52.613c.307 0 .587-.293.667-.6.04-.147.08-.293.146-.467.174-.48.454-1.04.814-1.6a.235.235 0 0 1 .053-.066c.52-.827.827-1.32 1-1.64.094-.2.147-.36.174-.56Zm-8.08-3.786H2.773c-.787 0-1.44.573-1.44 1.293v8.867c0 .707.653 1.293 1.44 1.293h4.733c.787 0 1.44-.586 1.44-1.293v-8.867c0-.72-.653-1.293-1.44-1.293Zm-.347 3.386c0 .134 0 .294-.027.44-.04.187-.094.347-.2.534-.16.333-.454.8-.987 1.613a.295.295 0 0 1-.02.034l-.02.033a7.483 7.483 0 0 0-.813 1.587l-.04.12c-.04.114-.077.224-.107.333-.08.307-.347.573-.667.573-.32 0-.573-.266-.52-.573.067-.293.147-.573.267-.893.213-.547.52-1.187.92-1.814.212-.338.385-.602.525-.816.185-.283.311-.478.395-.637H3.694c-.307 0-.56-.267-.56-.587 0-.32.253-.573.56-.573h2.88a.59.59 0 0 1 .587.573v.054Zm18.694 12.801v-2.08H1.44v2.08c0 1.947 1.587 3.534 3.507 3.534h17.4c1.934 0 3.508-1.6 3.508-3.534Z" clip-rule="evenodd"/></svg>
