<svg viewBox="0 0 24 24" fill="none" xmlns="http://www.w3.org/2000/svg">
    <g id="Bitcoin"><path id="Vector" fill-rule="evenodd" clip-rule="evenodd" d="M12 22a10 10 0 1 0 0-20 10 10 0 0 0 0 20Zm3.82-9.68-.19-.13.02-.02.02-.03c1-.25 1.42-1.15 1.42-2.1 0-.89-.56-1.42-1.26-1.81-.24-.14-.5-.25-.76-.37l-.37-.16.47-1.89-1.18-.3-.46 1.86-.95-.23.46-1.86-1.16-.3-.48 1.94-2.35-.58-.3 1.23.07.02.35.09.13.03.3.08c.42.14.6.4.5.8l-1.27 5.1c-.09.34-.28.45-.63.37a14.73 14.73 0 0 1-.8-.2l-.17.41-.4.93.7.18.49.12.76.19.43.1-.49 1.95 1.18.3.47-1.91.94.23-.47 1.91 1.17.3.48-1.93.38.05.71.08c1.58.16 2.5-.35 3.05-1.7.4-.99.26-1.83-.43-2.46l-.38-.3Zm-4.96 2.41-.1-.02.64-2.6.19.03c.8.17 1.57.34 2.25.81.46.32.67.79.54 1.26-.13.5-.5.77-1 .84-.86.12-1.68-.1-2.52-.32Zm1.4-6.17-.11.47c-.15.59-.3 1.16-.43 1.74-.01.06.07.17.12.19.63.16 1.25.32 1.91.25.56-.06.87-.32.99-.8.11-.49-.05-.89-.52-1.19a5.2 5.2 0 0 0-1.96-.66Z" fill="currentColor"/></g>
</svg>
