<svg viewBox="0 0 24 24" fill="none" xmlns="http://www.w3.org/2000/svg"><g id="Chat"><path id="Vector" fill-rule="evenodd" clip-rule="evenodd" d="M5.5 4h13C19.88 4 21 5.09 21 6.43v10.93a2.47 2.47 0 0 1-2.5 2.44h-6.28c-.21 0-.42.06-.6.19L7.24 22.9c-.33.24-.8.01-.8-.39V19.8H5.5A2.47 2.47 0 0 1 3 17.36V6.43A2.47 2.47 0 0 1 5.5 4Zm1.54 3C6.47 7 6 7.45 6 8s.47 1 1.04 1h7.92C15.53 9 16 8.55 16 8s-.47-1-1.04-1H7.04ZM7 11a1 1 0 1 0 0 2h10a1 1 0 1 0 0-2H7Zm-1 5c0-.55.44-1 .97-1h5.06c.53 0 .97.45.97 1s-.44 1-.97 1H6.97A.99.99 0 0 1 6 16Z" fill="currentColor"/></g></svg>
