<svg xmlns="http://www.w3.org/2000/svg" fill="none" viewBox="0 0 24 24"><path fill="currentColor" fill-rule="evenodd" d="M20 2.5H4c-1.11 0-1.99.89-1.99 2L2 15.5a2 2 0 0 0 2 2h4c.33 0 1-.2 1-1s-.67-1-1-1H5a1 1 0 0 1-1-1v-4h16v4a1 1 0 0 1-1 1h-3c-.33 0-1 .2-1 1s.67 1 1 1h4a2 2 0 0 0 2-2v-11a2 2 0 0 0-2-2Zm0 4H4v-2h16v2Z" clip-rule="evenodd"/><path fill="currentColor" d="m15.14 19.57-2.79 2.79a.5.5 0 0 1-.7-.01l-2.79-2.8a.5.5 0 0 1 .35-.84h1.8v-5a1 1 0 0 1 1-1 1 1 0 0 1 1 1v5h1.78a.5.5 0 0 1 .35.86Z"/></svg>
