<svg viewBox="0 0 20 20" fill="none" xmlns="http://www.w3.org/2000/svg">
<path d="M16.0833 7.4349L12.5417 3.9349L13.7083 2.76823C14.0278 2.44878 14.4203 2.28906 14.8858 2.28906C15.3508 2.28906 15.7431 2.44878 16.0625 2.76823L17.2292 3.9349C17.5486 4.25434 17.7153 4.6399 17.7292 5.09156C17.7431 5.54267 17.5903 5.92795 17.2708 6.2474L16.0833 7.4349ZM3.33333 17.4974C3.09722 17.4974 2.89944 17.4174 2.74 17.2574C2.58 17.098 2.5 16.9002 2.5 16.6641V14.3099C2.5 14.1988 2.52083 14.0913 2.5625 13.9874C2.60417 13.883 2.66667 13.7891 2.75 13.7057L11.3333 5.1224L14.875 8.66406L6.29167 17.2474C6.20833 17.3307 6.11472 17.3932 6.01083 17.4349C5.90639 17.4766 5.79861 17.4974 5.6875 17.4974H3.33333Z" fill="currentColor"/>
</svg>
