<svg viewBox="0 0 20 20" fill="none" xmlns="http://www.w3.org/2000/svg">
<path d="M18.3332 9.9974L16.4847 7.78311L16.7423 4.85454L14.0074 4.20375L12.5756 1.66406L9.99984 2.82279L7.42408 1.66406L5.99226 4.19581L3.25741 4.83867L3.51499 7.77517L1.6665 9.9974L3.51499 12.2117L3.25741 15.1482L5.99226 15.799L7.42408 18.3307L9.99984 17.1641L12.5756 18.3228L14.0074 15.791L16.7423 15.1403L16.4847 12.2117L18.3332 9.9974ZM8.01499 13.1799L6.21196 11.2752C5.9165 10.9657 5.9165 10.4657 6.21196 10.1561L6.26499 10.1006C6.56044 9.79105 7.04529 9.79105 7.34075 10.1006L8.56044 11.3863L12.462 7.29105C12.7574 6.98152 13.2423 6.98152 13.5377 7.29105L13.5907 7.3466C13.8862 7.65613 13.8862 8.15613 13.5907 8.46565L9.1059 13.1799C8.79529 13.4895 8.31802 13.4895 8.01499 13.1799Z" fill="currentColor"/>
</svg>
