<svg viewBox="0 0 24 24" fill="none" xmlns="http://www.w3.org/2000/svg">
<path d="M12.8904 12.9652C12.8904 12.9652 12.8802 12.8738 12.8802 12.8333C12.8701 12.4679 13.0832 12.0923 13.3978 11.8995C13.9358 11.5646 14.7985 11.8081 15.0218 12.4273C15.0725 12.5694 15.1131 12.7115 15.1537 12.8536C15.1537 12.8738 15.174 12.9043 15.174 12.9246C15.174 12.9347 15.174 12.9449 15.1842 12.955C15.1943 12.9652 15.2248 12.9753 15.2349 12.955C15.2349 12.9449 15.2349 12.9347 15.2349 12.9246C15.2349 12.9144 15.2349 12.8941 15.2349 12.8738C15.2349 12.8434 15.2349 12.813 15.2552 12.7825C15.2654 12.7216 15.2755 12.6709 15.2958 12.61C15.3263 12.4983 15.3669 12.3968 15.4176 12.2953C15.4582 12.2243 15.509 12.1634 15.5597 12.1126C15.8236 11.8487 16.2194 11.7371 16.5848 11.8081C16.9198 11.8792 17.2141 12.1329 17.3562 12.4476C17.3866 12.5288 17.4069 12.61 17.4272 12.6912C17.4374 12.7521 17.4374 12.9449 17.5389 12.9449C17.5896 12.9449 17.6099 12.884 17.6302 12.8434C17.6708 12.7318 17.7114 12.61 17.7723 12.5085C18.0261 12.1126 18.564 11.9096 19.0106 12.072C19.3861 12.2141 19.6297 12.4476 19.7413 12.8231C19.9849 13.6249 20.1575 14.4572 20.3706 15.259C20.9999 17.5528 21.7205 20.6687 19.3556 22.2521C18.087 23.1046 16.4529 23.3685 14.9913 22.8712C13.682 22.4246 13.0325 21.4604 12.1292 20.5063C11.033 19.3493 9.93685 18.1821 8.78994 17.0758C8.60725 16.9032 8.37381 16.7814 8.18097 16.5988C8.00843 16.4364 7.87648 16.2334 7.85618 15.9999C7.81558 15.6345 8.07947 15.2692 8.41441 15.1169C8.74935 14.9647 9.15533 14.985 9.50041 15.1169C9.8455 15.2489 10.1703 15.4417 10.4849 15.6447C10.7082 15.7868 10.9315 15.9289 11.1548 16.0811C11.2664 16.1522 11.5303 16.3552 11.5405 16.142C11.5405 16.0202 11.3679 15.7056 11.3273 15.5838C11.2258 15.3098 11.0736 15.0966 10.9721 14.8226C10.9011 14.6399 10.8402 14.4673 10.7691 14.2846C10.6981 14.102 10.6372 13.9091 10.5763 13.7264C10.5052 13.5437 10.4342 13.3509 10.3733 13.1682C10.2819 12.9144 10.1804 12.6607 10.0891 12.3968C9.99774 12.1532 9.91655 11.9096 9.83535 11.666C9.71355 11.321 9.57146 10.9759 9.44967 10.6308C9.38877 10.4481 9.33802 10.2654 9.26697 10.0827C9.18578 9.83912 9.10458 9.60568 9.00308 9.37224C8.74935 8.80386 8.97264 8.14413 9.53086 7.8701C10.1094 7.58591 10.7793 7.8701 11.0026 8.39787C11.1548 8.75311 11.2664 9.12865 11.4085 9.49403C11.5506 9.85942 11.713 10.2248 11.845 10.5902C11.9668 10.8947 12.0581 11.1992 12.1799 11.5037C12.3017 11.8284 12.4336 12.1431 12.5554 12.4679C12.6265 12.6506 12.6772 12.8333 12.7381 13.0159C12.7584 13.0565 12.8092 13.0768 12.8498 13.0565C12.8802 13.0362 12.8802 13.0159 12.8802 12.9855L12.8904 12.9652Z" fill="currentColor"/>
<path d="M9.31796 1.29023C5.35962 1.35113 2.18281 4.62945 2.25385 8.59794C2.2843 10.5162 3.06582 12.3127 4.44616 13.6524C4.91304 14.099 5.42052 14.4847 5.97875 14.7892C6.33398 14.982 6.77041 14.7791 6.85161 14.3832C6.90236 14.1193 6.78056 13.8554 6.54712 13.7235C4.73035 12.7187 3.4921 10.8004 3.4515 8.57765C3.40076 5.27902 6.03965 2.54878 9.33826 2.48788C12.6369 2.42699 15.3671 5.07603 15.428 8.37465C15.428 8.71974 15.4077 9.06483 15.357 9.39976C15.3164 9.66365 15.4483 9.91739 15.6919 10.0392C16.0573 10.2117 16.4836 9.98844 16.5445 9.59261C16.6054 9.19677 16.6358 8.78064 16.6257 8.35435C16.5648 4.39601 13.2864 1.21918 9.31796 1.29023Z" fill="currentColor" stroke="currentColor" stroke-width="0.49733" stroke-miterlimit="10"/>
<path d="M13.3472 8.39945C13.3066 6.24773 11.5304 4.53245 9.37869 4.5629C7.22698 4.6035 5.5117 6.37968 5.54215 8.53139C5.56245 9.5768 5.97858 10.5512 6.72965 11.2718C6.82099 11.3631 6.91234 11.4443 7.01384 11.5154C7.19653 11.6575 7.47057 11.556 7.51116 11.3327C7.54161 11.2007 7.49087 11.0688 7.38937 10.9774C7.31832 10.9165 7.24728 10.8557 7.18638 10.7948C6.5571 10.1959 6.21202 9.38396 6.19172 8.51109C6.16127 6.72476 7.59236 5.24292 9.38884 5.21247C9.61213 5.21247 9.83542 5.23277 10.0486 5.27337C11.5304 5.55756 12.6671 6.84656 12.6874 8.4096C12.6874 8.53139 12.7585 8.64304 12.8701 8.69379H12.8904C13.1036 8.80543 13.3472 8.65319 13.3472 8.41975V8.39945Z" fill="currentColor" stroke="currentColor" stroke-width="0.751069" stroke-linecap="round" stroke-linejoin="round"/>
</svg>
