<svg viewBox="0 0 24 24" fill="none" xmlns="http://www.w3.org/2000/svg">
    <path d="M20 4H4C3.46957 4 2.96086 4.21071 2.58579 4.58579C2.21071 4.96086 2 5.46957 2 6V10C2.53043 10 3.03914 10.2107 3.41421 10.5858C3.78929 10.9609 4 11.4696 4 12C4 12.5304 3.78929 13.0391 3.41421 13.4142C3.03914 13.7893 2.53043 14 2 14V18C2 18.5304 2.21071 19.0391 2.58579 19.4142C2.96086 19.7893 3.46957 20 4 20H20C20.5304 20 21.0391 19.7893 21.4142 19.4142C21.7893 19.0391 22 18.5304 22 18V14C21.4696 14 20.9609 13.7893 20.5858 13.4142C20.2107 13.0391 20 12.5304 20 12C20 11.4696 20.2107 10.9609 20.5858 10.5858C20.9609 10.2107 21.4696 10 22 10V6C22 5.46957 21.7893 4.96086 21.4142 4.58579C21.0391 4.21071 20.5304 4 20 4V4ZM12 18H4V15.46C4.60747 15.1093 5.11204 14.605 5.46308 13.9977C5.81411 13.3904 5.99928 12.7015 6 12C5.99928 11.2985 5.81411 10.6096 5.46308 10.0023C5.11204 9.39503 4.60747 8.89073 4 8.54V6H12V18ZM20 8.54C19.3938 8.89162 18.8907 9.39631 18.5409 10.0035C18.1912 10.6108 18.0071 11.2992 18.0071 12C18.0071 12.7008 18.1912 13.3892 18.5409 13.9965C18.8907 14.6037 19.3938 15.1084 20 15.46V18H14V6H20V8.54Z" fill="currentColor"/>
    <path d="M16 11C16.2652 11 16.5196 10.8946 16.7071 10.7071C16.8946 10.5196 17 10.2652 17 10V9C17 8.73478 16.8946 8.48043 16.7071 8.29289C16.5196 8.10536 16.2652 8 16 8C15.7348 8 15.4804 8.10536 15.2929 8.29289C15.1054 8.48043 15 8.73478 15 9V10C15 10.2652 15.1054 10.5196 15.2929 10.7071C15.4804 10.8946 15.7348 11 16 11ZM16 16C16.2652 16 16.5196 15.8946 16.7071 15.7071C16.8946 15.5196 17 15.2652 17 15V14C17 13.7348 16.8946 13.4804 16.7071 13.2929C16.5196 13.1054 16.2652 13 16 13C15.7348 13 15.4804 13.1054 15.2929 13.2929C15.1054 13.4804 15 13.7348 15 14V15C15 15.2652 15.1054 15.5196 15.2929 15.7071C15.4804 15.8946 15.7348 16 16 16Z" fill="currentColor"/>
</svg>
