<svg xmlns="http://www.w3.org/2000/svg" fill="none" viewBox="0 0 16 16"><path fill="currentColor" d="M12.953 2.074c.21 0 .38.166.38.37v.741c0 .205-.17.37-.38.37H3.048a.376.376 0 0 1-.381-.37v-.74c0-.205.17-.371.38-.371h2.287l.762-.74h3.81l.761.74z"/><path fill="currentColor" fill-rule="evenodd" d="M3.429 13.185V4.296h9.143v8.89c0 .814-.686 1.48-1.524 1.48H4.953c-.838 0-1.524-.666-1.524-1.48m6.857-7.407a.75.75 0 0 0-.762.74v5.926c0 .41.341.741.762.741.42 0 .762-.332.762-.74V6.517c0-.409-.341-.74-.762-.74m-3.048.74c0-.409.342-.74.762-.74.421 0 .762.331.762.74v5.926c0 .41-.34.741-.762.741a.75.75 0 0 1-.762-.74zm-1.523-.74a.75.75 0 0 0-.762.74v5.926c0 .41.34.741.762.741.42 0 .762-.332.762-.74V6.517c0-.409-.342-.74-.762-.74" clip-rule="evenodd"/></svg>
