<svg viewBox="0 0 16 16" fill="none" xmlns="http://www.w3.org/2000/svg"><g clip-path="url(#a)"><mask id="b" style="mask-type:luminance" maskUnits="userSpaceOnUse" x="0" y="0"><path d="M16 0H0v16h16z" fill="#fff"/></mask><g mask="url(#b)" fill="currentColor"><path d="M13.6 16a.6.6 0 0 1-.45-.19l-1.64-1.64-.52 1.4a.64.64 0 0 1-1.21-.04L7.85 9.34a.64.64 0 0 1 .8-.8l6.2 1.91a.64.64 0 0 1 .03 1.21l-1.4.53 1.65 1.64q.18.19.18.45t-.18.45l-1.08 1.08a.6.6 0 0 1-.46.2m-2.42-3.39 2.43 2.43.75-.76-2.43-2.43 2.04-.76-5.15-1.6 1.59 5.15z"/><path d="M8.32 14.08q-.27.15-.53.15c-.6 0-1.26-.63-1.79-1.67a11 11 0 0 1-1-4.44h1.98q.1-.16.23-.3c.39-.4.96-.53 1.49-.37l2.89.9v-.23h2.8q-.04.53-.16 1.03l.96.3q.23-.88.23-1.83a7.62 7.62 0 1 0-6.76 7.57zm4.15-11.14a6.6 6.6 0 0 1 1.92 4.18h-2.8c-.07-2.38-.7-4.46-1.62-5.75q1.4.5 2.5 1.57M7.79 1.01c.6 0 1.27.63 1.8 1.68.58 1.16.94 2.75 1 4.43H5c.06-1.67.42-3.27 1-4.43C6.53 1.64 7.2 1 7.8 1M3.12 2.94a6.6 6.6 0 0 1 2.5-1.57c-.93 1.3-1.55 3.37-1.63 5.75H1.2a6.6 6.6 0 0 1 1.92-4.18m0 9.35A6.6 6.6 0 0 1 1.2 8.12H4c.07 2.38.7 4.45 1.61 5.74a6.6 6.6 0 0 1-2.5-1.57"/></g></g><defs><clipPath id="a"><path fill="currentColor" d="M0 0h16v16H0z"/></clipPath></defs></svg>
