<svg viewBox="0 0 24 25" fill="none" xmlns="http://www.w3.org/2000/svg"><g id="Withdraw money"><g id="Vector" fill="currentColor"><path fill-rule="evenodd" clip-rule="evenodd" d="M20 3.5H4c-1.11 0-1.99.89-1.99 2L2 17.5a2 2 0 0 0 2 2h4c.33 0 1-.2 1-1s-.67-1-1-1H5a1 1 0 0 1-1-1v-5h16v5a1 1 0 0 1-1 1h-3c-.33 0-1 .2-1 1s.67 1 1 1h4a2 2 0 0 0 2-2v-12a2 2 0 0 0-2-2Zm0 4H4v-2h16v2Z"/><path d="m8.86 15.43 2.79-2.79a.5.5 0 0 1 .7.01l2.79 2.8a.5.5 0 0 1-.35.84H13v5a1 1 0 0 1-1 1 1 1 0 0 1-1-1v-5H9.21a.5.5 0 0 1-.35-.86Z"/></g></g></svg>
