<svg viewBox="0 0 24 24" fill="none" xmlns="http://www.w3.org/2000/svg">
<path fill-rule="evenodd" clip-rule="evenodd" d="M12 24C18.6274 24 24 18.6274 24 12C24 5.37258 18.6274 0 12 0C5.37258 0 0 5.37258 0 12C0 18.6274 5.37258 24 12 24ZM14.4245 7.11607C13.7918 7.0872 13.6021 7.0811 12 7.0811C10.3979 7.0811 10.2082 7.0872 9.57546 7.11607C8.99049 7.14277 8.6728 7.24051 8.46137 7.32266C8.18131 7.4315 7.98141 7.56154 7.77146 7.77149C7.56152 7.98143 7.43148 8.18133 7.32266 8.46137C7.24049 8.67282 7.14274 8.99051 7.11604 9.57551C7.08718 10.2082 7.08108 10.3979 7.08108 12C7.08108 13.6021 7.08718 13.7918 7.11604 14.4245C7.14274 15.0095 7.24049 15.3272 7.32266 15.5387C7.43148 15.8187 7.56152 16.0186 7.77146 16.2285C7.98141 16.4385 8.18131 16.5685 8.46137 16.6773C8.6728 16.7595 8.99049 16.8573 9.57549 16.884C10.2081 16.9128 10.3978 16.9189 12 16.9189C13.6022 16.9189 13.7919 16.9128 14.4245 16.884C15.0095 16.8573 15.3272 16.7595 15.5386 16.6773C15.8187 16.5685 16.0186 16.4385 16.2285 16.2285C16.4385 16.0186 16.5685 15.8187 16.6773 15.5387C16.7595 15.3272 16.8572 15.0095 16.8839 14.4245C16.9128 13.7918 16.9189 13.6021 16.9189 12C16.9189 10.3979 16.9128 10.2082 16.8839 9.57549C16.8572 8.99051 16.7595 8.67282 16.6773 8.46137C16.5685 8.18133 16.4385 7.98143 16.2285 7.77149C16.0186 7.56154 15.8187 7.4315 15.5386 7.32266C15.3272 7.24051 15.0095 7.14277 14.4245 7.11607ZM9.52621 6.03611C10.1662 6.00691 10.3705 6 12 6C13.6295 6 13.8338 6.00691 14.4738 6.03611C15.1124 6.06526 15.5486 6.16667 15.9302 6.315C16.3248 6.46834 16.6594 6.6735 16.9929 7.00706C17.3265 7.34061 17.5317 7.67522 17.685 8.06977C17.8333 8.45144 17.9347 8.88758 17.9639 9.52623C17.9931 10.1662 18 10.3705 18 12C18 13.6295 17.9931 13.8339 17.9639 14.4738C17.9347 15.1124 17.8333 15.5486 17.685 15.9303C17.5317 16.3248 17.3265 16.6594 16.9929 16.993C16.6594 17.3265 16.3248 17.5317 15.9302 17.685C15.5486 17.8334 15.1124 17.9348 14.4738 17.9639C13.8338 17.9931 13.6295 18 12 18C10.3705 18 10.1662 17.9931 9.52621 17.9639C8.88755 17.9348 8.45142 17.8334 8.06975 17.685C7.6752 17.5317 7.34059 17.3265 7.00703 16.993C6.67347 16.6594 6.46831 16.3248 6.31498 15.9303C6.16665 15.5486 6.06523 15.1124 6.03608 14.4738C6.00688 13.8339 6 13.6295 6 12C6 10.3705 6.00688 10.1662 6.03608 9.52623C6.06523 8.88758 6.16665 8.45144 6.31498 8.06977C6.46831 7.67522 6.67347 7.34061 7.00703 7.00706C7.34059 6.6735 7.6752 6.46834 8.06975 6.315C8.45142 6.16667 8.88755 6.06526 9.52621 6.03611ZM8.9189 12C8.9189 10.2984 10.2984 8.91892 12 8.91892C13.7016 8.91892 15.0811 10.2984 15.0811 12C15.0811 13.7016 13.7016 15.0811 12 15.0811C10.2984 15.0811 8.9189 13.7016 8.9189 12ZM9.99998 12C9.99998 13.1046 10.8954 14 12 14C13.1046 14 14 13.1046 14 12C14 10.8954 13.1046 10 12 10C10.8954 10 9.99998 10.8954 9.99998 12ZM15.2028 9.51721C15.6005 9.51721 15.9228 9.19484 15.9228 8.79719C15.9228 8.39954 15.6005 8.0772 15.2028 8.0772C14.8052 8.0772 14.4828 8.39954 14.4828 8.79719C14.4828 9.19484 14.8052 9.51721 15.2028 9.51721Z" fill="currentColor"/>
</svg>
