<svg xmlns="http://www.w3.org/2000/svg" fill="none" viewBox="0 0 32 32">
<path fill="currentColor" fill-rule="evenodd" d="M11.51 22.81A8.11 8.11 0 0 0 16 24.16a8.17 8.17 0 1 0-6.6-3.38l-.75 2.76 2.86-.73Zm8.45-4.91.2.08a.9.9 0 0 1 .36.29c.28.44-.1 1.08-.39 1.42-.32.37-.77.62-1.25.69a2.85 2.85 0 0 1-.86-.03 7.7 7.7 0 0 1-3.94-2.1c-.6-.6-1.06-1.25-1.52-1.93l-.12-.16c-.1-.16-.87-1.25-.83-2.36.03-.74.46-1.9 1.3-2.08.66-.15 1.02.11 1.2.73.11.34.23.67.38.99l.02.03c.08.17.16.36.15.55 0 .27-.2.46-.38.64-.2.2-.4.39-.37.67.03.23.16.43.3.61.3.4.61.79.97 1.13.46.44 1 .8 1.56 1.07.12.06.24.1.36.1.16 0 .3-.1.41-.2.1-.08.19-.2.28-.34.17-.25.36-.52.65-.53.11 0 .22.05.32.1l1 .53.2.1Z" clip-rule="evenodd"/><path fill="currentColor" fill-rule="evenodd" d="M32 16a16 16 0 1 0-32.02.02A16 16 0 0 0 32 16ZM6.2 16a9.8 9.8 0 1 1 9.8 9.8 9.76 9.76 0 0 1-4.74-1.22l-4.88 1.2 1.22-4.72A9.76 9.76 0 0 1 6.2 16Z" clip-rule="evenodd"/>
</svg>
